<svg width="192" height="192" viewBox="0 0 192 192" fill="none" xmlns="http://www.w3.org/2000/svg">
<g clip-path="url(#clip0)">
<path d="M96 192C149.019 192 192 149.019 192 96C192 42.9807 149.019 0 96 0C42.9807 0 0 42.9807 0 96C0 149.019 42.9807 192 96 192Z" fill="#1977F3"/>
<path d="M133.369 123.757L137.621 96.0006H110.999V77.9913C110.999 70.4042 114.711 62.9926 126.645 62.9926H138.755V39.3673C138.755 39.3673 127.766 37.4907 117.263 37.4907C95.3385 37.4907 81.0013 50.7749 81.0013 74.8458V96.0006H56.6199V123.757H81.0013V190.84C85.8883 191.609 90.8969 192.001 96 192.001C101.103 192.001 106.112 191.596 110.999 190.84V123.757H133.369Z" fill="white"/>
</g>
<defs>
<clipPath id="clip0">
<rect width="192" height="192" fill="white"/>
</clipPath>
</defs>
</svg>
