<svg width="192" height="192" viewBox="0 0 192 192" fill="none" xmlns="http://www.w3.org/2000/svg">
<path d="M99.8197 192C57.0526 191.884 19.7888 164.869 7.63293 124.574C-2.51943 90.8103 4.06259 59.9487 26.8974 32.9785C40.9347 16.4047 59.0369 6.2459 80.3177 1.89856C92.2218 -0.52927 104.483 -0.629578 116.426 1.60318C117.761 1.84719 117.774 2.20679 117.254 3.2856C111.38 15.5121 105.535 27.7557 99.7169 40.0165C99.5727 40.3999 99.3053 40.7245 98.9567 40.9395C98.608 41.1546 98.1978 41.2477 97.7905 41.2044C85.5542 41.5173 73.7741 45.9134 64.3244 53.6933C54.8747 61.4732 48.2983 72.19 45.6417 84.1384C39.7789 110.255 53.9061 137.27 78.8343 146.844C98.6189 154.441 117.029 151.416 133.776 138.432C134.631 137.79 134.984 137.661 135.594 138.721C142.015 149.959 148.492 161.175 155.025 172.37C155.597 173.352 155.391 173.795 154.544 174.386C141.929 183.31 127.337 189.04 112.02 191.082C107.973 191.604 103.9 191.91 99.8197 192V192Z" fill="#EF492D"/>
<path d="M166.256 164.195C165.73 163.912 165.582 163.334 165.312 162.866C158.009 150.237 150.731 137.595 143.479 124.94C143.233 124.422 142.83 123.993 142.328 123.715C141.826 123.436 141.25 123.321 140.68 123.386C126.18 123.431 111.687 123.386 97.1869 123.386H95.3824C95.3695 122.829 95.5719 122.289 95.9475 121.877C103.311 109.086 110.678 96.294 118.05 83.5025C118.246 83.0794 118.569 82.7281 118.974 82.4978C119.38 82.2675 119.847 82.1697 120.311 82.2182C135.153 82.2567 149.991 82.2567 164.824 82.2182C165.285 82.17 165.75 82.2681 166.152 82.4986C166.554 82.7291 166.874 83.0803 167.065 83.5025C174.467 96.4011 181.903 109.283 189.374 122.147C189.623 122.477 189.764 122.876 189.775 123.289C189.787 123.703 189.669 124.109 189.438 124.452C181.933 137.411 174.457 150.356 167.008 163.289C166.809 163.617 166.719 164.066 166.256 164.195Z" fill="#EF492D"/>
<path d="M134.997 28.3546C132.338 25.6961 129.859 23.1532 127.291 20.6488C126.495 19.8783 127.053 19.3067 127.394 18.7224C130.333 13.6043 135.118 9.80433 140.769 8.10126C144.194 6.97117 147.817 6.57019 151.406 6.92408C154.994 7.27798 158.469 8.37892 161.607 10.1561C173.166 16.4042 172.132 30.8975 165.46 37.4474C162.931 39.8831 160.065 41.9439 156.952 43.5671C153.741 45.2752 150.53 46.887 147.384 48.7043C144.77 50.2005 142.734 52.2682 141.791 55.2606C141.405 56.4678 141.636 56.7825 142.927 56.7696C151.416 56.7183 159.912 56.7696 168.408 56.7183C169.692 56.7183 170.173 56.9623 170.122 58.3622C170.006 61.361 170.051 64.3663 170.122 67.3522C170.122 68.3026 169.859 68.6365 168.883 68.6365C155.231 68.6109 141.583 68.6109 127.939 68.6365C127.297 68.6365 126.7 68.6365 126.694 67.7054C126.694 58.253 128.44 49.4492 135.838 42.7066C139.361 39.5862 143.317 36.9908 147.583 35.0008C149.92 33.8578 152.283 32.7662 154.325 31.1094C156.11 29.6582 157.343 27.8987 157.472 25.5227C157.664 21.8047 154.723 19.0435 150.28 18.7545C143.89 18.2986 139.28 21.1754 136.056 26.5181C135.735 27.0446 135.44 27.584 134.997 28.3546V28.3546Z" fill="#EF492D"/>
<path d="M167.553 177.654V174.565H166.449V173.923H169.409V174.565H168.292V177.654H167.553ZM169.884 177.654V173.936H171.008L171.65 176.473L172.293 173.936H173.423V177.654H172.787V174.726L172.048 177.654H171.323L170.591 174.726V177.654H169.884Z" fill="#EF492D"/>
</svg>
