<svg width="192" height="192" viewBox="0 0 192 192" fill="none" xmlns="http://www.w3.org/2000/svg">
<path d="M192 36.7836C184.936 39.9152 177.395 42.0356 169.391 42.9906C177.595 38.0663 183.732 30.332 186.664 21.2241C178.942 25.82 170.486 29.0504 161.667 30.7732C129.79 -0.823263 84.8528 31.9528 94.5424 66.723C61.8224 65.08 32.7536 49.4503 13.3744 25.5774C2.22439 44.5353 9.48457 67.8465 25.5637 78.0978C19.1039 77.8956 13.0374 76.1177 7.72921 73.1687C7.72359 73.3344 7.72359 73.4987 7.72359 73.663C7.72359 92.7614 21.3031 108.63 39.3201 112.281C33.1833 113.798 27.3134 114.036 21.4856 112.955C26.4989 128.543 41.0052 139.917 58.278 140.339C40.8648 153.567 20.643 159.016 0 156.628C88.8915 208.868 172.728 140.479 172.447 62.2602C172.446 60.5651 172.409 58.8702 172.336 57.1767C180.031 51.6157 186.659 44.6785 191.996 36.8145" fill="#55AAEE"/>
</svg>
