<svg viewBox="0 0 1000 1000" fill="red" width="1rem" height="1rem"><path fill-rule="evenodd" clip-rule="evenodd" d="M822.945 394.435C822.945 394.435 915 445.086 915 499.694C915 554.303 822.945 604.953 822.945 604.953C822.945 604.953 867.859 699.994 835.773 744.167C803.718 788.296 699.577 775.103 699.577 775.103C699.577 775.103 680.227 878.567 628.273 895.453C576.426 912.305 500 840.372 500 840.372C500 840.372 423.643 912.66 371.727 895.831C319.76 878.984 300.423 775.481 300.423 775.481C300.423 775.481 196.339 788.632 164.227 744.544C131.997 700.294 177.055 604.953 177.055 604.953C177.055 604.953 85.0969 554.303 85.0001 499.694C84.9031 444.975 177.055 394.058 177.055 394.058C177.055 394.058 131.927 298.666 164.227 254.467C196.39 210.456 300.423 223.908 300.423 223.908C300.423 223.908 319.773 120.444 371.727 103.558C423.574 86.7061 500 158.64 500 158.64C500 158.64 576.42 86.7235 628.273 103.558C680.353 120.466 699.577 224.285 699.577 224.285C699.577 224.285 803.718 211.092 835.773 255.221C867.859 299.394 822.945 394.435 822.945 394.435ZM398.59 638.764V360.032C398.59 338.778 421.884 325.863 439.824 337.432L657.776 476.529C674.376 487.291 674.376 511.505 657.776 521.998L439.824 661.363C421.884 672.932 398.59 660.018 398.59 638.764Z"></path></svg>