<svg width="874" height="150" viewBox="0 0 874 150" fill="none" xmlns="http://www.w3.org/2000/svg">
<g clip-path="url(#clip0_925_1157)">
<path d="M271.324 65.1012C274.17 63.127 276.477 60.7083 278.145 57.9445C280.305 54.44 281.384 50.541 281.384 46.2963C281.384 41.2618 280.206 36.6718 277.9 32.6245C275.593 28.5773 272.207 25.221 267.839 22.6051C265.239 21.075 262 19.9398 258.122 19.2489C254.295 18.6072 249.092 18.2617 242.614 18.2617H218.322V119.492H255.227C264.551 119.492 272.502 116.679 278.783 111.2C285.114 105.672 288.353 98.7132 288.353 90.5692C288.353 84.0541 286.684 78.4768 283.347 74.0348C280.55 70.1849 276.477 67.1743 271.324 65.1012ZM262 56.9573C259.055 59.4745 254.785 60.7577 249.24 60.7577H233.634V31.9335H248.405C254.491 31.9335 259.055 33.1674 262.049 35.6351C264.993 38.0538 266.416 41.6075 266.416 46.4443C266.318 51.0346 264.895 54.4894 262 56.9573ZM233.585 74.6763H252.184C259.055 74.6763 264.306 76.009 267.741 78.6247C271.127 81.1915 272.747 84.893 272.747 89.9276C272.747 95.0607 271.078 98.8117 267.594 101.378C264.061 103.994 258.711 105.327 251.694 105.327H233.634V74.6763H233.585Z" fill="#508CF7"/>
<path d="M390.92 32.625H376.394V49.1596H364.814H354.116H348.914L330.951 92.8399C330.657 93.5804 330.068 95.1598 329.233 97.6771C328.743 99.1577 328.203 100.885 327.565 102.761C326.976 100.737 326.485 98.9603 325.994 97.4797C324.964 94.1726 324.571 93.2351 324.424 92.8399L306.757 49.1596H290.66L319.369 118.209L307.002 147.626H321.823L359.318 61.7947H376.446V104.143C376.446 110.164 377.867 114.557 380.666 117.222C383.461 119.838 388.074 121.22 394.405 121.22H402.355V107.252H394.8C393.375 107.252 392.393 106.956 391.803 106.314C391.217 105.623 390.92 104.439 390.92 102.761V61.8441H402.355V49.1596H390.92V32.625Z" fill="#508CF7"/>
<path d="M445.1 47.4805C434.45 47.4805 425.716 50.985 419.088 57.8455C412.464 64.7059 409.127 73.7877 409.127 84.8434C409.127 89.5323 409.911 94.0732 411.53 98.3179C413.102 102.612 415.458 106.412 418.451 109.67C421.836 113.372 426.009 116.234 430.72 118.258C435.431 120.232 440.634 121.269 446.081 121.269C452.658 121.269 458.692 120.035 463.945 117.567C469.195 115.099 474.104 111.249 478.519 106.067L479.354 105.08L468.803 96.541L468.019 97.4789C465.022 100.934 461.688 103.599 458.054 105.376C454.471 107.153 450.595 108.041 446.426 108.041C439.996 108.041 434.596 106.215 430.427 102.563C426.547 99.2063 424.342 94.9616 423.752 89.6806H481.662V87.5086C481.662 75.614 478.274 65.8906 471.599 58.635C464.828 51.1824 455.944 47.4805 445.1 47.4805ZM430.522 65.7426C434.497 62.3369 439.359 60.6096 444.953 60.6096C450.449 60.6096 455.208 62.2875 459.036 65.6438C462.52 68.7038 464.729 72.6525 465.663 77.3908H423.8C424.635 72.751 426.892 68.8521 430.522 65.7426Z" fill="#508CF7"/>
<path d="M562.046 31.1438C552.282 22.6051 537.851 18.2617 519.251 18.2617H497.658V119.492H519.251C537.851 119.492 552.282 115.149 562.046 106.61C571.861 98.0221 576.868 85.3373 576.868 68.9017C576.868 52.4658 571.861 39.7812 562.046 31.1438ZM521.167 105.376H513.02V32.4764H521.167C534.514 32.4764 544.625 35.5366 551.348 41.6569C558.023 47.7275 561.36 56.8587 561.36 68.9511C561.36 80.9446 557.975 90.125 551.348 96.1959C544.673 102.267 534.514 105.376 521.167 105.376Z" fill="#508CF7"/>
<path d="M642.677 58.0448C639.977 55.1822 636.885 52.8623 633.452 51.1349C628.986 48.9139 624.029 47.8281 618.68 47.8281C608.078 47.8281 599.443 51.1844 592.962 57.8474C586.485 64.5105 583.246 73.3455 583.246 84.1049C583.246 89.0901 584.081 93.7295 585.701 97.9741C587.32 102.219 589.822 106.118 593.061 109.524C596.449 113.028 600.425 115.743 604.792 117.618C609.159 119.445 613.822 120.382 618.68 120.382C624.128 120.382 629.034 119.346 633.254 117.273C636.445 115.693 639.339 113.522 641.794 110.758V119.543H656.221V49.1607H642.677V58.0448ZM636.2 67.5214C640.321 71.8646 642.431 77.4913 642.431 84.2532C642.431 91.0643 640.321 96.691 636.2 101.034C632.078 105.329 626.729 107.5 620.3 107.5C613.87 107.5 608.521 105.329 604.4 101.034C600.275 96.7404 598.164 91.1137 598.164 84.2532C598.164 77.4419 600.275 71.8152 604.4 67.472C608.521 63.1779 613.87 61.0063 620.3 61.0063C626.729 61.0063 632.078 63.1779 636.2 67.5214Z" fill="#508CF7"/>
<path d="M700.637 47.8281C696.713 47.8281 692.983 48.6177 689.547 50.1971C686.946 51.3818 684.392 53.0597 681.941 55.2313V49.1607H667.609V119.494H681.941V80.6502C681.941 73.9871 683.363 68.9526 686.111 65.6952C688.811 62.4869 693.031 60.858 698.526 60.858C703.384 60.858 706.821 62.2895 709.03 65.3001C711.287 68.3604 712.466 73.3452 712.466 80.1565V119.543H726.893V78.9719C726.893 69.3968 724.538 61.7959 719.874 56.268C715.214 50.6907 708.733 47.8281 700.637 47.8281Z" fill="#508CF7"/>
<path d="M784.751 100.936C782.937 103.256 780.776 105.033 778.226 106.168C775.673 107.353 772.68 107.945 769.294 107.945C763.059 107.945 758.102 105.822 754.226 101.43C750.35 97.0863 748.386 91.3117 748.386 84.3523C748.386 77.393 750.398 71.6184 754.325 67.1763C758.252 62.7343 763.158 60.5627 769.342 60.5627C772.482 60.5627 775.328 61.1054 777.783 62.1421C780.186 63.1785 782.395 64.8073 784.311 67.0284L785.242 68.1142L794.617 57.2555L793.683 56.4165C790.397 53.406 786.715 51.1355 782.692 49.6546C778.714 48.1741 774.2 47.4336 769.294 47.4336C764.14 47.4336 759.329 48.322 755.01 50.0003C750.694 51.7277 746.815 54.2944 743.627 57.6506C740.191 61.1054 737.59 65.1527 735.872 69.6936C734.106 74.1851 733.223 79.1208 733.223 84.3523C733.223 89.5843 734.106 94.52 735.872 98.962C737.637 103.453 740.239 107.501 743.627 110.956C746.815 114.263 750.694 116.829 755.061 118.556C759.428 120.284 764.187 121.173 769.342 121.173C774.299 121.173 778.864 120.383 782.886 118.853C786.912 117.323 790.737 114.855 794.372 111.499L795.302 110.66L785.781 99.653L784.751 100.936Z" fill="#508CF7"/>
<path d="M873.578 87.4101C873.578 75.5151 870.193 65.7921 863.518 58.5365C856.795 51.2318 847.911 47.4805 837.016 47.4805C826.366 47.4805 817.632 50.985 811.008 57.8455C804.38 64.7059 801.043 73.7877 801.043 84.8434C801.043 89.5323 801.83 94.0732 803.45 98.3179C805.018 102.612 807.374 106.412 810.37 109.67C813.755 113.372 817.925 116.234 822.636 118.258C827.348 120.232 832.55 121.269 837.998 121.269C844.574 121.269 850.611 120.035 855.861 117.567C861.111 115.099 866.02 111.249 870.438 106.067L871.27 105.08L860.719 96.541L859.935 97.4789C856.942 100.934 853.557 103.599 849.974 105.376C846.391 107.153 842.515 108.041 838.342 108.041C831.912 108.041 826.516 106.215 822.343 102.563C818.467 99.1568 816.258 94.9616 815.668 89.6806H873.53V87.4101H873.578ZM822.442 65.7426C826.417 62.3369 831.275 60.6096 836.869 60.6096C842.365 60.6096 847.127 62.2875 850.955 65.6438C854.44 68.7038 856.645 72.6525 857.579 77.3908H815.719C816.602 72.751 818.859 68.8521 822.442 65.7426Z" fill="#508CF7"/>
<path d="M43.661 118.357L17.8965 124.971V6.91016L43.661 13.5733V118.357Z" fill="#508CF7"/>
<path d="M168.167 125.267L142.354 131.881V0L168.167 6.66314V125.267Z" fill="#508CF7"/>
<path d="M84.5419 121.912L58.7773 128.575V59.0312L84.5419 65.6943V121.912Z" fill="#508CF7"/>
<path d="M101.375 48.765L127.189 42.1016V111.645L101.375 104.982V48.765Z" fill="#508CF7"/>
</g>
<defs>
<clipPath id="clip0_925_1157">
<rect width="872.727" height="150" fill="white" transform="translate(0.851562)"/>
</clipPath>
</defs>
</svg>
