<svg width="415" height="150" viewBox="0 0 415 150" fill="none" xmlns="http://www.w3.org/2000/svg">
<path d="M56.2492 66.4544V52.303H103.618C104.101 54.7998 104.387 57.7603 104.387 60.9774C104.387 71.5859 101.486 84.7208 92.1308 94.0761C83.0321 103.55 71.4169 108.602 56.0025 108.602C27.4531 108.602 3.45312 85.3623 3.45312 56.8129C3.45312 28.2636 27.4531 5.02344 56.0025 5.02344C71.7919 5.02344 83.0321 11.2109 91.4992 19.2932L81.5222 29.2701C75.463 23.5859 67.2525 19.1649 56.0025 19.1649C35.1604 19.1649 18.8676 35.9609 18.8676 56.8129C18.8676 77.6649 35.1604 94.4609 56.0025 94.4609C69.5222 94.4609 77.2196 89.0333 82.1538 84.0991C86.1702 80.0827 88.815 74.3294 89.8413 66.4544H56.2492Z" fill="#4285F4"/>
<path d="M176.565 75.2477C176.565 94.4517 161.535 108.593 143.091 108.593C124.647 108.593 109.617 94.4418 109.617 75.2477C109.617 55.9254 124.647 41.9023 143.091 41.9023C161.535 41.9023 176.565 55.9254 176.565 75.2477ZM161.91 75.2477C161.91 63.2477 153.196 55.0372 143.091 55.0372C132.986 55.0372 124.272 63.2477 124.272 75.2477C124.272 87.1194 132.986 95.4583 143.091 95.4583C153.196 95.4681 161.91 87.1293 161.91 75.2477Z" fill="#EA4335"/>
<path d="M248.604 75.2477C248.604 94.4517 233.574 108.593 215.13 108.593C196.686 108.593 181.656 94.4418 181.656 75.2477C181.656 55.9254 196.686 41.9023 215.13 41.9023C233.574 41.9023 248.604 55.9254 248.604 75.2477ZM233.949 75.2477C233.949 63.2477 225.235 55.0372 215.13 55.0372C205.025 55.0372 196.311 63.2477 196.311 75.2477C196.311 87.1194 205.025 95.4583 215.13 95.4583C225.235 95.4681 233.949 87.1293 233.949 75.2477Z" fill="#FBBC05"/>
<path d="M317.762 43.9038V103.795C317.762 128.427 303.235 138.532 286.054 138.532C269.89 138.532 260.16 127.667 256.498 118.825L269.258 113.516C271.528 118.943 277.094 125.387 286.054 125.387C297.048 125.387 303.867 118.568 303.867 105.808V101.012H303.363C300.077 105.058 293.762 108.591 285.808 108.591C269.13 108.591 253.844 94.065 253.844 75.3643C253.844 56.5452 269.13 41.8906 285.808 41.8906C293.762 41.8906 300.077 45.4235 303.363 49.3413H303.867V43.8939H317.762V43.9038ZM304.873 75.3742C304.873 63.6209 297.038 55.0354 287.061 55.0354C276.956 55.0354 268.488 63.6209 268.488 75.3742C268.488 86.9992 276.956 95.4564 287.061 95.4564C297.048 95.4663 304.873 86.9992 304.873 75.3742Z" fill="#4285F4"/>
<path d="M342.436 8.88281V106.58H327.781V8.88281H342.436Z" fill="#34A853"/>
<path d="M398.031 86.2391L409.4 93.818C405.739 99.2457 396.897 108.601 381.61 108.601C362.663 108.601 348.512 93.9463 348.512 75.2556C348.512 55.42 362.781 41.9102 379.962 41.9102C397.272 41.9102 405.729 55.6766 408.512 63.1273L410.031 66.9167L365.436 85.3608C368.851 92.0516 374.15 95.4661 381.601 95.4661C389.061 95.4661 394.242 91.795 398.031 86.2391ZM363.038 74.2391L392.851 61.8641C391.212 57.6996 386.278 54.7884 380.476 54.7884C373.015 54.7884 362.663 61.3509 363.038 74.2391Z" fill="#EA4335"/>
</svg>
