<svg width="550" height="150" viewBox="0 0 550 150" fill="none" xmlns="http://www.w3.org/2000/svg">
<g clip-path="url(#clip0_925_1231)">
<path d="M168.052 121.57H152.071V133.009H165.697V135.981H152.071V149.691H148.734V118.598H168.052V121.57Z" fill="black"/>
<path d="M194.603 149.693H191.071L188.575 142.6H175.005L172.51 149.609H168.949L180.417 118.516H183.22L194.603 149.693ZM175.987 139.796H187.566L181.959 123.31L175.987 139.796Z" fill="black"/>
<path d="M218.129 121.737L215.998 123.868C215.048 122.923 213.912 122.186 212.662 121.703C211.412 121.22 210.075 121.003 208.736 121.064C204.531 121.064 202.147 123.363 202.147 126.868C202.094 127.537 202.192 128.21 202.434 128.836C202.677 129.463 203.058 130.026 203.549 130.484C204.722 131.383 206.118 131.945 207.587 132.111L211.232 132.671C213.295 132.787 215.265 133.575 216.839 134.914C217.696 135.679 218.373 136.623 218.824 137.68C219.275 138.736 219.487 139.879 219.447 141.026C219.447 146.634 215.213 149.858 208.708 149.858C206.743 149.991 204.773 149.69 202.937 148.978C201.101 148.266 199.444 147.159 198.082 145.737L200.325 143.522C201.392 144.668 202.7 145.564 204.154 146.145C205.608 146.727 207.173 146.98 208.736 146.886C213.334 146.886 216.11 144.783 216.11 141.111C216.156 140.39 216.045 139.668 215.784 138.995C215.522 138.322 215.117 137.714 214.596 137.213C213.447 136.27 212.017 135.737 210.531 135.699L206.914 135.167C204.858 134.934 202.912 134.116 201.306 132.811C200.497 132.073 199.862 131.165 199.445 130.152C199.028 129.138 198.84 128.046 198.895 126.952C198.895 121.653 202.708 118.204 208.848 118.204C210.553 118.141 212.253 118.421 213.847 119.028C215.442 119.635 216.898 120.556 218.129 121.737V121.737Z" fill="black"/>
<path d="M244.256 121.57H235.256V149.607H231.92V121.57H222.836V118.598H244.172L244.256 121.57Z" fill="black"/>
<path d="M249.359 149.691H245.266V145.598H249.387L249.359 149.691Z" fill="black"/>
<path d="M288.838 121.57H272.829V133.009H286.455V135.981H272.829V149.691H269.492V118.598H288.838V121.57Z" fill="black"/>
<path d="M311.687 121.404C314.491 124.208 314.827 127.011 314.827 134.161C314.827 141.31 314.603 143.974 311.687 146.918C309.584 148.883 306.813 149.976 303.935 149.976C301.056 149.976 298.286 148.883 296.182 146.918C293.379 144.114 293.07 141.31 293.07 134.161C293.07 127.011 293.239 124.32 296.182 121.404C298.27 119.407 301.047 118.293 303.935 118.293C306.823 118.293 309.6 119.407 311.687 121.404V121.404ZM298.566 123.479C296.603 125.497 296.379 127.768 296.379 134.161C296.379 140.553 296.603 142.796 298.566 144.815C300.006 146.219 301.937 147.005 303.949 147.005C305.96 147.005 307.892 146.219 309.332 144.815C311.295 142.796 311.519 140.525 311.519 134.161C311.519 127.796 311.295 125.497 309.332 123.479C307.892 122.074 305.96 121.288 303.949 121.288C301.937 121.288 300.006 122.074 298.566 123.479V123.479Z" fill="black"/>
<path d="M334.567 118.6C335.755 118.488 336.953 118.63 338.082 119.016C339.21 119.403 340.244 120.025 341.114 120.842C341.983 121.659 342.67 122.651 343.126 123.754C343.583 124.856 343.8 126.043 343.763 127.235C343.872 129.224 343.243 131.182 341.996 132.735C340.748 134.287 338.971 135.324 337.006 135.646L344.38 149.665H340.595L333.501 135.871H326.043V149.665H322.707V118.6H334.567ZM325.959 121.572V132.955H334.371C335.88 132.955 337.328 132.355 338.395 131.288C339.463 130.22 340.062 128.773 340.062 127.263C340.062 125.754 339.463 124.306 338.395 123.239C337.328 122.171 335.88 121.572 334.371 121.572H325.959Z" fill="black"/>
<path d="M377.491 149.691H374.406L367.481 124.794L360.584 149.691H357.416L349.453 118.598H352.986L359.07 143.663L365.939 118.598H368.883L375.752 143.663L381.836 118.598H385.453L377.491 149.691Z" fill="black"/>
<path d="M412.873 149.691H409.34L406.845 142.682H393.247L390.779 149.691H387.219L398.686 118.598H401.49L412.901 149.691H412.873ZM394.256 139.794H405.836L400.088 123.308L394.256 139.794Z" fill="black"/>
<path d="M431.857 118.88C433.047 118.763 434.249 118.902 435.381 119.287C436.513 119.672 437.55 120.293 438.423 121.111C439.296 121.928 439.985 122.922 440.443 124.026C440.901 125.131 441.119 126.32 441.082 127.515C441.19 129.508 440.556 131.47 439.304 133.023C438.051 134.576 436.267 135.611 434.297 135.926L441.698 149.945H437.801L430.736 136.151H423.25V149.945H419.941V118.88H431.857ZM423.25 121.852V133.235H431.661C433.171 133.235 434.618 132.635 435.686 131.568C436.753 130.5 437.353 129.053 437.353 127.543C437.353 126.034 436.753 124.586 435.686 123.519C434.618 122.451 433.171 121.852 431.661 121.852H423.25Z" fill="black"/>
<path d="M459.892 118.596C461.415 118.506 462.938 118.753 464.353 119.32C465.768 119.887 467.041 120.76 468.079 121.877C470.883 124.849 470.883 129.391 470.883 134.157C470.883 138.923 470.883 143.437 468.079 146.409C467.044 147.53 465.773 148.406 464.356 148.974C462.94 149.541 461.415 149.786 459.892 149.69H449.238V118.596H459.892ZM452.547 121.568V146.802H459.332C460.457 146.887 461.586 146.726 462.642 146.329C463.698 145.932 464.654 145.308 465.444 144.503C467.463 142.372 467.491 138.531 467.491 134.213C467.491 129.895 467.491 126.026 465.444 123.895C464.653 123.093 463.696 122.474 462.64 122.082C461.584 121.69 460.455 121.533 459.332 121.624L452.547 121.568Z" fill="black"/>
<path d="M480.445 149.691H476.352V145.598H480.445V149.691Z" fill="black"/>
<path d="M77.8285 119.103H42.193C41.7915 119.094 41.4015 118.968 41.0715 118.739L12.2491 97.3462C11.9293 97.1079 11.6936 96.7741 11.5762 96.3929L0.557488 61.4584C0.460004 61.0909 0.460004 60.7043 0.557488 60.3369L11.5481 22.7387C11.6804 22.3347 11.9352 21.982 12.2771 21.7294L41.7164 0.364898C42.0404 0.124351 42.4343 -0.00364599 42.8379 0.000411904H77.2117C77.6074 -0.00827066 77.9938 0.120544 78.3052 0.364898L107.885 21.7574C108.231 21.9867 108.481 22.3362 108.586 22.7387L119.604 60.3369C119.717 60.7022 119.717 61.093 119.604 61.4584L108.473 96.3929C108.346 96.7693 108.113 97.1005 107.8 97.3462L78.95 118.739C78.6241 118.976 78.2315 119.103 77.8285 119.103ZM43.679 115.318H73.2304C62.2102 104.505 50.4428 94.4799 38.0154 85.3182C39.3064 95.4176 41.1786 105.434 43.6229 115.318M39.3052 81.6733C52.5185 91.2971 64.9926 101.897 76.6229 113.384C79.4695 98.3354 81.2032 83.0979 81.8098 67.7948C67.2026 70.8558 52.9701 75.4903 39.3612 81.6172M85.4547 69.421C84.7898 83.9936 83.1318 98.5039 80.4921 112.851L104.184 95.2714C99.4806 85.6375 93.1439 76.8913 85.4547 69.421M16.3986 95.72L39.1369 112.542C36.9332 103.183 35.2391 93.7114 34.0622 84.1686C27.7769 87.352 21.8545 91.2062 16.3986 95.664M5.54814 64.7107L14.3238 92.5518C19.8469 88.0499 25.8339 84.1493 32.1837 80.9163C23.6085 75.031 14.7166 69.6209 5.54814 64.7107M87.8939 66.5612C95.3026 73.6167 101.506 81.8376 106.258 90.8976L115.062 62.8602C105.943 63.5347 96.8717 64.7424 87.8939 66.4771M36.8939 42.2808C35.9389 54.333 36.0609 66.4465 37.2584 78.477C50.8427 72.2899 65.0562 67.5897 79.6509 64.4584C70.7201 58.0448 61.0296 52.7616 50.8005 48.7294C46.2584 46.7387 41.5762 44.664 36.7818 42.3088M5.57618 60.449C15.1457 65.5315 24.4221 71.1478 33.3612 77.2714C32.2979 65.6449 32.2135 53.9495 33.1089 42.3088C23.0672 46.9292 13.7841 53.0454 5.57618 60.449M84.221 30.2247C85.4496 41.1514 85.9554 52.1473 85.7351 63.1406C95.0526 61.2908 104.471 59.9895 113.941 59.2434C105.152 48.4882 95.1829 38.7543 84.221 30.2247M39.7537 39.477C43.7351 41.4397 47.6603 43.206 52.3145 45.2528C62.8406 49.4294 72.8052 54.9015 81.978 61.5425C82.1282 50.4018 81.5193 39.2639 80.1556 28.206C66.3213 30.4672 52.7742 34.2276 39.7537 39.421M14.2958 26.8041L6.05281 55.0098C13.7435 48.6527 22.2253 43.3186 31.2865 39.1406C25.2214 35.6919 19.5763 31.5521 14.464 26.8041M86.6323 27.2247C96.4036 34.7729 105.393 43.2829 113.464 52.6266L105.277 25.2341C99.0809 25.6546 92.7444 26.2995 86.464 27.2247M43.9594 4.65462C40.8859 15.0076 38.7189 25.6083 37.4827 36.3369C50.222 31.1055 63.4844 27.2518 77.0435 24.8415C66.4466 17.4301 55.3971 10.688 43.9594 4.65462M16.2865 23.4677C21.5276 28.4468 27.3778 32.7426 33.6977 36.2527C34.8198 26.2552 36.7419 16.3636 39.4453 6.67331L16.2865 23.4677ZM80.1837 6.3649C81.4734 12.1406 82.5388 18.0004 83.3799 23.8602C89.3238 22.935 95.3519 22.2341 101.352 21.7574L80.1837 6.3649ZM50.2397 3.75742C60.2455 9.23408 69.9339 15.2717 79.2584 21.8415C78.3332 15.7574 77.0435 9.70135 75.6977 3.75742H50.2397Z" fill="#F0000A"/>
<path d="M309.389 30.2808L288.08 88.8229H299.996L303.557 78.4771H324.361L327.809 88.8229H339.753L318.361 30.2808H309.389ZM306.753 68.8322L314.155 47.5519L321.305 68.8322H306.753ZM391.398 48.1967C391.398 38.4117 384.333 30.2808 372.417 30.2808H349.454V88.8509H360.893V65.4677H369.136L380.548 88.8509H393.865L380.772 63.6173C383.96 62.5215 386.712 60.4324 388.624 57.6569C390.537 54.8813 391.509 51.5656 391.398 48.1967V48.1967ZM371.772 55.935H360.977V40.4584H371.772C372.843 40.3671 373.922 40.4993 374.94 40.8468C375.958 41.1942 376.892 41.7492 377.685 42.4767C378.477 43.2042 379.109 44.0882 379.542 45.0729C379.974 46.0575 380.198 47.1212 380.198 48.1967C380.198 49.2722 379.974 50.3359 379.542 51.3206C379.109 52.3052 378.477 53.1892 377.685 53.9167C376.892 54.6442 375.958 55.1992 374.94 55.5466C373.922 55.8941 372.843 56.0263 371.772 55.935V55.935ZM446.632 48.1967C446.632 38.4117 439.538 30.2808 427.622 30.2808H404.66V88.8509H416.127V65.4677H424.342L435.753 88.8509H449.015L435.949 63.6173C439.127 62.5091 441.868 60.4161 443.774 57.6428C445.68 54.8694 446.652 51.5603 446.548 48.1967H446.632ZM427.006 55.935H416.267V40.4584H427.006C428.077 40.3671 429.156 40.4993 430.174 40.8468C431.192 41.1942 432.126 41.7492 432.918 42.4767C433.71 43.2042 434.343 44.0882 434.775 45.0729C435.208 46.0575 435.431 47.1212 435.431 48.1967C435.431 49.2722 435.208 50.3359 434.775 51.3206C434.343 52.3052 433.71 53.1892 432.918 53.9167C432.126 54.6442 431.192 55.1992 430.174 55.5466C429.156 55.8941 428.077 56.0263 427.006 55.935V55.935ZM459.949 30.2808H471.361V88.8509H459.949V30.2808ZM520.034 59.1313C521.603 60.7773 522.815 62.7308 523.592 64.8686C524.369 67.0064 524.694 69.282 524.548 71.5519C524.548 82.907 515.099 89.3276 502.819 89.3276C493.959 89.3276 487.202 87.449 481.454 81.5892L488.856 74.1874C490.746 75.9026 492.96 77.2227 495.367 78.0701C497.775 78.9175 500.327 79.2751 502.875 79.1219C509.632 79.1219 513.249 76.5705 513.249 71.8883C513.305 70.9842 513.172 70.0783 512.858 69.2286C512.545 68.3788 512.057 67.604 511.426 66.9537C509.971 65.712 508.149 64.983 506.239 64.879L499.174 63.8976C494.971 63.5215 490.996 61.8234 487.819 59.0472C486.376 57.5159 485.259 55.7073 484.536 53.7313C483.813 51.7552 483.499 49.6529 483.613 47.5519C483.613 37.0939 491.379 29.7762 504.024 29.7762C507.462 29.5593 510.908 30.0551 514.145 31.2323C517.382 32.4095 520.342 34.2428 522.837 36.6173L515.604 43.7668C513.972 42.3297 512.071 41.2323 510.01 40.5391C507.95 39.8458 505.772 39.5706 503.604 39.7294C497.492 39.7294 494.548 43.0939 494.548 47.1313C494.531 47.9102 494.677 48.6839 494.977 49.4032C495.276 50.1225 495.722 50.7715 496.286 51.3089C497.812 52.6158 499.699 53.4274 501.697 53.636L508.622 54.6173C512.745 54.893 516.673 56.474 519.837 59.1313H520.034ZM223.538 71.8883C223.538 83.5519 215.127 89.3276 204.949 89.3276C196.538 89.3276 188.688 85.4864 186.725 76.3182L196.959 72.0565C197.026 74.1609 197.926 76.1525 199.461 77.5932C200.997 79.0339 203.041 79.8057 205.146 79.7388C207.25 79.6718 209.242 78.7717 210.682 77.2364C212.123 75.701 212.895 73.6562 212.828 71.5519C212.911 70.4594 212.754 69.3621 212.368 68.3368C211.982 67.3115 211.376 66.3831 210.593 65.6164C209.811 64.8498 208.87 64.2636 207.837 63.8989C206.804 63.5342 205.703 63.3998 204.613 63.5051H204.192V54.1967H204.613C205.604 54.3058 206.608 54.1923 207.549 53.8644C208.491 53.5365 209.348 53.0025 210.057 52.3013C210.767 51.6001 211.31 50.7495 211.649 49.8114C211.988 48.8733 212.113 47.8715 212.015 46.879C212.042 45.9327 211.883 44.9903 211.547 44.1055C211.21 43.2207 210.703 42.4109 210.053 41.7222C209.404 41.0336 208.625 40.4797 207.761 40.092C206.897 39.7044 205.966 39.4907 205.02 39.4631C204.073 39.4355 203.131 39.5945 202.246 39.9311C201.361 40.2677 200.551 40.7753 199.863 41.4248C199.174 42.0744 198.62 42.8533 198.233 43.7169C197.845 44.5806 197.631 45.5121 197.604 46.4584L187.482 42.2528C188.481 38.4842 190.758 35.1796 193.924 32.9039C197.089 30.6281 200.947 29.5226 204.837 29.7762C215.211 29.7762 222.697 36.6733 222.697 46.5986C222.846 49.0186 222.289 51.4298 221.095 53.5399C219.9 55.6499 218.119 57.3682 215.968 58.4864C218.386 59.7326 220.389 61.6552 221.733 64.0199C223.077 66.3846 223.704 69.0892 223.538 71.8042V71.8883ZM266.912 30.2528H278.351V88.8509H266.912V64.3182H247.09V88.8509H235.678V30.2528H247.09V54.1967H266.912V30.2528ZM160.931 78.6453H179.295V88.8509H149.52V30.2528H160.931V78.6453Z" fill="black"/>
<path d="M549.499 34.2341C549.511 35.3993 549.288 36.5549 548.844 37.6322C548.4 38.7095 547.744 39.6866 546.915 40.5052C546.086 41.3239 545.1 41.9675 544.017 42.3978C542.935 42.8281 541.776 43.0362 540.611 43.0098C538.889 42.9822 537.212 42.4465 535.793 41.4699C534.374 40.4933 533.274 39.1193 532.633 37.5202C531.991 35.9212 531.836 34.1683 532.187 32.4815C532.538 30.7947 533.379 29.2491 534.605 28.0386C535.831 26.8281 537.388 26.0066 539.079 25.6771C540.77 25.3476 542.521 25.5248 544.111 26.1866C545.702 26.8483 547.062 27.965 548.021 29.3967C548.979 30.8284 549.493 32.5112 549.499 34.2341V34.2341ZM533.854 34.2341C533.832 35.1429 533.992 36.047 534.324 36.8931C534.656 37.7392 535.154 38.5103 535.789 39.1608C536.424 39.8114 537.183 40.3284 538.021 40.6812C538.858 41.0341 539.758 41.2157 540.667 41.2154C541.569 41.2125 542.461 41.0275 543.29 40.6717C544.118 40.3159 544.866 39.7965 545.489 39.1446C546.112 38.4928 546.597 37.7219 546.916 36.8781C547.234 36.0343 547.378 35.1351 547.34 34.2341C547.367 33.3341 547.212 32.4379 546.886 31.5988C546.559 30.7596 546.068 29.9944 545.44 29.3486C544.813 28.7029 544.062 28.1896 543.233 27.8392C542.403 27.4889 541.512 27.3085 540.611 27.3089C539.711 27.3124 538.82 27.4952 537.991 27.8466C537.161 28.198 536.41 28.7109 535.782 29.3555C535.153 30.0001 534.658 30.7634 534.327 31.601C533.997 32.4386 533.836 33.3337 533.854 34.2341V34.2341ZM537.219 38.8042V30.0846C538.327 29.8657 539.454 29.7623 540.583 29.7762C541.638 29.677 542.698 29.9125 543.611 30.4491C543.886 30.6893 544.104 30.9874 544.249 31.3219C544.395 31.6565 544.464 32.0191 544.452 32.3837C544.409 32.8679 544.211 33.3254 543.888 33.6888C543.565 34.0521 543.134 34.3023 542.658 34.4024V34.4024C543.499 34.6547 543.976 35.3556 544.256 36.5893C544.346 37.3191 544.554 38.0294 544.873 38.6921H542.686C542.33 38.0404 542.102 37.3267 542.013 36.5893C541.845 35.608 541.312 35.1874 540.191 35.1874H539.238V38.8603L537.219 38.8042ZM539.294 33.8696H540.247C541.312 33.8696 542.266 33.4491 542.266 32.5799C542.266 31.7108 541.677 31.2622 540.415 31.2622C540.043 31.2175 539.666 31.2175 539.294 31.2622V33.8696Z" fill="black"/>
</g>
<defs>
<clipPath id="clip0_925_1231">
<rect width="549.056" height="150" fill="white" transform="translate(0.472656)"/>
</clipPath>
</defs>
</svg>
