<svg width="723" height="150" viewBox="0 0 723 150" fill="none" xmlns="http://www.w3.org/2000/svg">
<path d="M241.704 0H270.861L320.44 89.6842L370.018 0H398.545V147.368H374.756V34.4215L331.282 112.632H308.966L265.493 34.4215V147.368H241.704V0Z" fill="#1C2B33" fill-opacity="0.9"/>
<path d="M469.078 149.998C458.06 149.998 448.376 147.558 440.026 142.683C431.674 137.805 425.166 131.05 420.499 122.42C415.832 113.788 413.5 103.893 413.5 92.7354C413.5 81.4376 415.78 71.4372 420.342 62.7353C424.903 54.0347 431.237 47.2271 439.342 42.3135C447.447 37.4027 456.763 34.9453 467.289 34.9453C477.744 34.9453 486.745 37.4188 494.289 42.3661C501.832 47.3145 507.639 54.2446 511.71 63.1562C515.779 72.0691 517.815 82.5239 517.815 94.5247V101.05H437.079C438.553 110.034 442.184 117.103 447.974 122.261C453.763 127.419 461.079 129.997 469.921 129.997C477.008 129.997 483.113 128.945 488.236 126.84C493.358 124.734 498.166 121.542 502.658 117.261L515.289 132.735C502.726 144.244 487.323 149.998 469.078 149.998ZM486.447 62.5765C481.463 57.4896 474.937 54.9448 466.868 54.9448C459.008 54.9448 452.429 57.542 447.131 62.7351C441.832 67.9282 438.481 74.9107 437.078 83.6824H494.973C494.271 74.6997 491.428 67.6662 486.447 62.5765Z" fill="#1C2B33" fill-opacity="0.9"/>
<path d="M546.659 57.055H524.764V37.5812H546.659V5.37109H569.606V37.5812H602.869V57.055H569.606V106.423C569.606 114.633 571.009 120.493 573.817 124.001C576.622 127.511 581.43 129.264 588.238 129.264C591.254 129.264 593.817 129.143 595.922 128.896C598.028 128.651 600.343 128.317 602.869 127.896V147.159C600.272 147.93 597.343 148.562 594.08 149.054C590.816 149.544 587.396 149.791 583.816 149.791C559.044 149.791 546.659 136.248 546.659 109.16V57.055Z" fill="#1C2B33" fill-opacity="0.9"/>
<path d="M722.45 147.366H699.924V131.998C695.924 137.753 690.835 142.192 684.661 145.313C678.486 148.435 671.468 149.998 663.608 149.998C653.925 149.998 645.346 147.523 637.872 142.576C630.398 137.629 624.52 130.823 620.24 122.156C615.959 113.489 613.819 103.577 613.819 92.4194C613.819 81.1915 615.994 71.2611 620.346 62.6291C624.696 53.9984 630.714 47.2271 638.398 42.3135C646.082 37.4027 654.907 34.9453 664.872 34.9453C672.38 34.9453 679.117 36.4026 685.082 39.3144C691.046 42.2262 695.993 46.3507 699.924 51.6823V37.5776H722.45V147.366H722.45ZM699.503 75.9986C697.046 69.7528 693.17 64.8245 687.872 61.2082C682.572 57.5947 676.451 55.7878 669.503 55.7878C659.678 55.7878 651.854 59.0867 646.03 65.6821C640.204 72.2787 637.293 81.1917 637.293 92.4194C637.293 103.718 640.099 112.665 645.714 119.262C651.327 125.858 658.941 129.156 668.556 129.156C675.643 129.156 681.959 127.332 687.503 123.682C693.046 120.035 697.046 115.121 699.503 108.945V75.9986Z" fill="#1C2B33" fill-opacity="0.9"/>
<g clip-path="url(#clip0_925_1132)">
<path d="M24.3783 97.2278C24.3783 105.703 26.2381 112.21 28.6708 116.146C31.8594 121.303 36.6149 123.492 41.4634 123.492C47.7161 123.492 53.4368 121.94 64.4608 106.695C73.2949 94.4757 83.6995 77.3244 90.7017 66.5718L102.56 48.355C110.797 35.7038 120.331 21.6403 131.263 12.1075C140.19 4.32635 149.815 0.00390625 159.503 0.00390625C175.77 0.00390625 191.264 9.42886 203.122 27.1054C216.1 46.4639 222.399 70.8487 222.399 96.0117C222.399 110.971 219.45 121.963 214.432 130.647C209.584 139.045 200.134 147.436 184.239 147.436V123.488C197.85 123.488 201.246 110.983 201.246 96.6718C201.246 76.2785 196.49 53.6472 186.014 37.4759C178.58 26.0055 168.945 18.997 158.346 18.997C146.881 18.997 137.655 27.6437 127.287 43.0563C121.774 51.2466 116.116 61.2266 109.762 72.4888L102.767 84.8778C88.7182 109.791 85.1585 115.462 78.1331 124.823C65.8203 141.216 55.305 147.432 41.4634 147.432C25.0423 147.432 14.659 140.322 8.22781 129.608C2.97852 120.879 0.399902 109.423 0.399902 96.3715L24.3783 97.2278Z" fill="#0081FB"/>
<path d="M19.3062 28.7918C30.2994 11.8488 46.1645 0 64.3608 0C74.8984 0 85.3766 3.11841 96.3141 12.0497C108.28 21.8121 121.034 37.8969 136.945 64.395L142.65 73.9018C156.423 96.8427 164.258 108.645 168.845 114.211C174.742 121.358 178.873 123.489 184.238 123.489C197.849 123.489 201.245 110.983 201.245 96.6725L222.398 96.0087C222.398 110.968 219.45 121.96 214.431 130.644C209.584 139.042 200.134 147.433 184.238 147.433C174.356 147.433 165.602 145.287 155.921 136.155C148.482 129.146 139.778 116.696 133.084 105.503L113.174 72.2506C103.185 55.5623 94.0182 43.1194 88.7177 37.4841C83.0118 31.424 75.6777 24.1068 63.974 24.1068C54.502 24.1068 46.4574 30.7527 39.7259 40.9186L19.3062 28.7918Z" fill="url(#paint0_linear_925_1132)"/>
<path d="M63.9745 24.1068C54.5025 24.1068 46.4579 30.7527 39.7264 40.9187C30.207 55.2834 24.383 76.6799 24.383 97.2276C24.383 105.703 26.2428 112.21 28.6754 116.146L8.22781 129.608C2.97852 120.879 0.399902 109.423 0.399902 96.3713C0.399902 72.6355 6.91572 47.8965 19.3067 28.7918C30.2999 11.8488 46.165 0 64.3613 0L63.9745 24.1068Z" fill="url(#paint1_linear_925_1132)"/>
</g>
<defs>
<linearGradient id="paint0_linear_925_1132" x1="48.5237" y1="69.8955" x2="201.381" y2="77.6167" gradientUnits="userSpaceOnUse">
<stop stop-color="#0064E1"/>
<stop offset="0.4" stop-color="#0064E1"/>
<stop offset="0.83" stop-color="#0073EE"/>
<stop offset="1" stop-color="#0082FB"/>
</linearGradient>
<linearGradient id="paint1_linear_925_1132" x1="32.3801" y1="107.293" x2="32.3801" y2="50.9452" gradientUnits="userSpaceOnUse">
<stop stop-color="#0082FB"/>
<stop offset="1" stop-color="#0064E0"/>
</linearGradient>
<clipPath id="clip0_925_1132">
<rect width="221.851" height="147.435" fill="white" transform="translate(0.473633)"/>
</clipPath>
</defs>
</svg>
