<svg width="877" height="150" viewBox="0 0 877 150" fill="none" xmlns="http://www.w3.org/2000/svg">
<g clip-path="url(#clip0_925_1142)">
<path d="M560.262 25.9439H516.078V1.58594H632.77V25.9439H588.812V148.3H560.262V25.9439Z" fill="#263239" fill-opacity="0.7"/>
<path d="M692.588 1.69922H754.219V26.0572H695.307C688.17 26.0572 682.392 31.8352 682.392 38.9726V62.8775H754.219V87.2355H682.278V111.14C682.278 118.278 688.056 124.056 695.194 124.056H754.106V148.414H692.475C671.062 148.414 653.729 131.08 653.729 109.668V40.5587C653.842 19.0331 671.176 1.69922 692.588 1.69922Z" fill="#263239" fill-opacity="0.7"/>
<path d="M778.805 1.69922H807.355V111.14C807.355 118.278 813.132 124.056 820.27 124.056H876.237V148.414H817.664C796.252 148.414 778.918 131.08 778.918 109.668V1.69922H778.805Z" fill="#263239" fill-opacity="0.7"/>
<path d="M495.118 40.4454V148.3H466.568V38.8593C466.568 31.7219 460.79 25.9439 453.653 25.9439H400.972V148.3H372.422V1.69922H456.259C477.784 1.69922 495.118 19.0331 495.118 40.4454Z" fill="#263239" fill-opacity="0.7"/>
<path d="M139.151 1.69922C160.564 1.69922 177.897 19.0331 177.897 40.4454V148.3H149.348V38.8593C149.348 31.7219 143.57 25.9439 136.432 25.9439H103.237V148.3H74.6875V25.9439H41.6059C34.4684 25.9439 28.6905 31.7219 28.6905 38.8593V148.3H0.140625V40.4454C0.140625 19.0331 17.4745 1.69922 38.8869 1.69922H139.151Z" fill="#263239" fill-opacity="0.7"/>
<path d="M275.33 27.5302C301.501 27.5302 322.8 48.8293 322.8 75C322.8 101.171 301.501 122.47 275.33 122.47C249.159 122.47 227.86 101.171 227.86 75C227.86 48.8293 249.159 27.5302 275.33 27.5302ZM275.33 0C233.865 0 200.33 33.5347 200.33 75C200.33 116.465 233.978 150 275.33 150C316.682 150 350.33 116.465 350.33 75C350.33 33.5347 316.795 0 275.33 0Z" fill="#263239" fill-opacity="0.7"/>
</g>
<defs>
<clipPath id="clip0_925_1142">
<rect width="876.095" height="150" fill="white" transform="translate(0.140625)"/>
</clipPath>
</defs>
</svg>
