<svg width="522" height="150" viewBox="0 0 522 150" fill="none" xmlns="http://www.w3.org/2000/svg">
<g clip-path="url(#clip0_925_1175)">
<path d="M420.446 88.6369L407.942 55.4188C407.424 54.1288 407.053 52.986 407.053 51.9988C407.053 49.4133 409.055 48.576 414.907 48.3497V45.0797H392.898V48.3524C395.271 48.7315 397.123 49.1869 398.012 51.4669L400.657 58.4542L389.02 88.5606L376.957 55.4188C376.439 54.0524 376.068 52.986 376.068 51.9988C376.068 49.4133 378.07 48.576 383.923 48.3497V45.0797H361.466V48.3524C363.839 48.7315 365.694 49.1869 366.58 51.4669L385.685 101.867H388.205L402.954 64.2306L417.626 101.867H420.149L438.22 51.4669C439.109 49.1106 440.964 48.7315 443.334 48.3497V45.0797H424.657V48.3524C430.513 48.5788 432.588 49.4897 432.588 52.0751C432.588 53.0624 432.144 54.2024 431.696 55.4979L420.446 88.6342V88.6369ZM471.277 89.2424C468.831 92.3624 464.68 95.2506 458.527 95.2506C448.745 95.2506 444.296 88.7869 444.296 78.2951H473.35V76.1679C473.35 67.0451 467.718 60.0497 456.896 60.0497C445.556 60.0497 437.255 68.946 437.255 82.2497C437.255 93.1233 444.296 101.864 456.231 101.864C466.682 101.864 471.796 95.7824 473.426 90.2324L471.277 89.2451V89.2424ZM455.045 64.7651C461.715 64.7651 465.198 69.1724 465.198 74.496H444.52C445.338 68.7933 449.189 64.7651 455.047 64.7651M316.938 89.2424C314.492 92.3624 310.338 95.2506 304.188 95.2506C294.406 95.2506 289.957 88.7869 289.957 78.2951H319.014V76.1679C319.014 67.0451 313.379 60.0497 302.56 60.0497C291.22 60.0497 282.918 68.946 282.918 82.2497C282.918 93.1233 289.957 101.864 301.892 101.864C312.34 101.864 317.456 95.7824 319.087 90.2324L316.938 89.2451V89.2424ZM300.706 64.7651C307.376 64.7651 310.859 69.1724 310.859 74.496H290.181C290.996 68.7933 294.85 64.7651 300.706 64.7651ZM260.721 60.0497C254.939 60.0497 249.752 62.9406 246.564 67.1188V60.0497H244.341L235.761 63.8515V65.676L239.151 68.3379V110.275C239.151 113.769 236.631 114.148 233.222 114.606V117.571H252.493V114.606C249.084 114.148 246.564 113.769 246.564 110.27V98.8233C248.936 100.648 252.345 101.864 256.791 101.864C268.502 101.864 278.137 93.1206 278.137 79.056C278.137 68.5642 272.132 60.0497 260.721 60.0497V60.0497ZM257.606 97.5333C251.983 97.5333 246.58 95.1824 246.564 87.9879V70.8469C249.084 68.1115 253.382 65.8288 257.904 65.8288C267.463 65.8288 270.504 74.346 270.504 82.2524C270.504 92.0597 265.39 97.5333 257.606 97.5333ZM205.374 44.4251C189.765 44.4251 176.816 55.9151 176.816 74.2206C176.816 88.7242 187.104 101.864 203.833 101.864C219.441 101.864 232.39 90.3742 232.39 72.0688C232.39 57.5651 222.103 44.4251 205.374 44.4251M223.131 75.0115C223.131 88.3969 216.782 96.3851 206.143 96.3851C199.805 96.3851 194.568 93.7479 191.006 88.7542C187.826 84.2951 186.075 78.0906 186.075 71.2779C186.075 57.8951 192.427 49.9042 203.064 49.9042C209.405 49.9042 214.638 52.5442 218.2 57.5379C221.38 61.9969 223.134 68.2015 223.134 75.0115M363.294 93.8051V72.5188C363.294 63.6224 358.18 60.0497 350.917 60.0497C345.065 60.0497 339.138 63.8488 335.876 67.4951V60.0497H333.654L325.079 63.8515V65.676L328.469 68.3379V93.9906C328.376 97.3097 325.892 97.6915 322.548 98.1388V101.103H341.819V98.1388C338.41 97.6833 335.89 97.3015 335.89 93.8051H335.879V70.9179C338.994 68.3351 344.102 66.2079 348.103 66.2079C352.995 66.2079 355.886 67.956 355.886 73.5824V93.8051C355.886 97.3015 353.366 97.6833 349.957 98.1388V101.103H369.228V98.1388C365.816 97.6833 363.296 97.3015 363.296 93.8051H363.294ZM501.414 60.0497C495.632 60.0497 490.592 62.9406 487.33 67.1215V42.8242H485.107L476.527 46.626V48.4506L479.917 51.1124V96.7751H479.925C483.114 99.2842 489.261 101.864 497.557 101.864C509.195 101.864 518.904 93.1206 518.904 79.056C518.904 68.5642 512.827 60.0497 501.414 60.0497V60.0497ZM498.37 97.5333C492.741 97.5333 487.333 95.1797 487.327 87.966V70.8469C489.847 68.1115 494.146 65.8288 498.667 65.8288C508.156 65.8288 511.267 74.346 511.267 82.2524C511.267 92.0597 506.154 97.5333 498.37 97.5333Z" fill="black"/>
<path d="M111.702 74.8827L111.699 75.0327L129.099 84.6245C129.099 84.6245 134.158 87.4827 139.705 89.5555C133.806 89.0291 128.005 89.4191 128.005 89.4191L108.159 90.5373C107.436 92.0482 106.607 93.5018 105.688 94.89L135.95 118.904C137.278 117.087 138.527 115.208 139.686 113.272L126.006 102.404C120.688 97.9964 115.362 95.5309 115.362 95.5309C120.317 96.54 127.457 96.1036 127.457 96.1036L147.565 94.9745C148.193 92.7136 148.725 90.4118 149.142 88.0745L131.515 78.3655C131.515 78.3655 125.275 74.8827 120.372 73.65C120.372 73.65 126.241 73.7318 132.953 72.0573L149.998 68.1845C149.799 65.9209 149.502 63.6873 149.104 61.4891L111.372 70.0473C111.585 71.6291 111.702 73.2436 111.702 74.8827V74.8827ZM101.535 100.075C100.378 101.275 99.14 102.398 97.8309 103.432L101.158 122.981C101.158 122.981 102.069 128.705 103.899 134.318C100.635 129.393 96.7127 125.114 96.7127 125.114L83.4582 110.34C81.8464 110.711 80.1937 110.981 78.5082 111.131L78.5382 149.686C80.8155 149.588 83.0655 149.386 85.2882 149.086L85.2827 131.654C85.4246 124.759 84.0364 119.073 84.0364 119.073C86.3327 123.565 91.1273 128.853 91.1273 128.853L104.554 143.823C106.738 142.895 108.874 141.87 110.949 140.746L107.575 120.96C107.575 120.96 106.414 113.924 104.325 109.334C104.325 109.334 107.919 113.959 113.417 118.145L127.086 129.016C128.72 127.462 130.277 125.831 131.766 124.135L101.535 100.075ZM98.0627 46.5164L116.439 38.9345C116.439 38.9345 121.834 36.7745 126.92 33.7445C122.826 38.0127 119.515 42.7773 119.515 42.7773L108.02 58.9391C108.751 60.4309 109.375 61.98 109.899 63.5755L147.612 54.9655C147.012 52.7836 146.311 50.64 145.52 48.54L128.455 52.4318C121.681 53.8255 116.428 56.4409 116.428 56.4409C120.309 53.2091 124.416 47.37 124.416 47.37L136.062 31.0091C134.668 29.0918 133.187 27.2455 131.622 25.4727L113.033 33.1473C113.033 33.1473 106.411 35.8418 102.388 38.8964C102.388 38.8964 106.114 34.3718 108.983 28.0964L116.575 12.39C114.694 11.1491 112.757 9.99 110.761 8.92091L93.9555 43.6527C95.3927 44.5145 96.7646 45.4745 98.0627 46.5164V46.5164ZM42.3336 58.9418L30.8355 42.7827C30.8355 42.7827 27.5246 38.0182 23.4309 33.7527C28.5173 36.78 33.9146 38.9373 33.9146 38.9373L52.2882 46.5191C53.5891 45.4745 54.9582 44.5173 56.3955 43.6555L39.5846 8.92364C37.5937 9.99545 35.6546 11.1545 33.7727 12.3955L41.3682 28.1018C44.2373 34.3745 47.9655 38.8991 47.9655 38.8991C43.94 35.8445 37.3155 33.1527 37.3155 33.1527L18.7264 25.4782C17.1637 27.2509 15.6827 29.1 14.2891 31.0145L25.9346 47.3782C25.9346 47.3782 30.0418 53.2145 33.9255 56.4464C33.9255 56.4464 28.6727 53.8309 21.8982 52.4373L4.83365 48.5509C4.04274 50.6509 3.34183 52.7918 2.73911 54.9736L40.4573 63.5809C40.9755 61.9855 41.6027 60.4336 42.3336 58.9445V58.9418ZM66.9037 110.34L53.6491 125.116C53.6491 125.116 49.7273 129.398 46.4655 134.324C48.2927 128.705 49.2037 122.984 49.2037 122.984L52.5309 103.435C51.2191 102.398 49.9809 101.28 48.8246 100.077L18.5982 124.14C20.0846 125.836 21.6473 127.467 23.2809 129.022L36.9473 118.151C42.4427 113.965 46.0373 109.339 46.0373 109.339C43.9482 113.929 42.7918 120.963 42.7918 120.963L39.4182 140.752C41.4909 141.875 43.6264 142.901 45.8137 143.828L59.2346 128.855C59.2346 128.855 64.0291 123.565 66.3255 119.075C66.3255 119.075 64.9373 124.762 65.0818 131.654L65.0791 149.089C67.2991 149.389 69.5518 149.588 71.8264 149.689L71.8537 111.134C70.1627 110.981 68.5155 110.714 66.9037 110.343V110.34ZM67.2009 39.3545L72.71 20.3155C72.71 20.3155 74.3818 14.7627 75.1755 8.91273C75.9746 14.7627 77.6437 20.3127 77.6437 20.3127L83.1527 39.3573C84.8027 39.7227 86.4091 40.1945 87.9637 40.7755L104.725 6.01636C102.658 5.13273 100.539 4.34182 98.3818 3.64364L90.7891 19.3636C87.6582 25.5136 86.4337 31.2382 86.4337 31.2382C86.3191 26.1982 84.3009 19.3582 84.3009 19.3582L78.7318 0.0872727C77.5537 0.0327273 76.37 0 75.1782 0C73.9864 0 72.8 0.03 71.6218 0.0872727L66.0527 19.3609C66.0527 19.3609 64.0346 26.2009 63.92 31.2409C63.92 31.2409 62.6955 25.5164 59.5646 19.3664L51.9746 3.64636C49.8146 4.34455 47.6982 5.13545 45.6309 6.01909L62.3927 40.7727C63.9473 40.1945 65.5564 39.7227 67.2009 39.3545V39.3545ZM17.4037 72.0655C24.1127 73.74 29.9846 73.6555 29.9846 73.6555C25.0809 74.8882 18.8382 78.3736 18.8382 78.3736L1.21456 88.0827C1.63183 90.4227 2.16092 92.7245 2.79365 94.9827L22.9018 96.1091C22.9018 96.1091 30.0418 96.5482 34.9946 95.5364C34.9946 95.5364 29.6709 97.9991 24.3527 102.409L10.67 113.28C11.8346 115.216 13.0809 117.095 14.4091 118.912L44.6682 94.8927C43.7491 93.5045 42.9227 92.0536 42.1946 90.54L22.3509 89.4218C22.3509 89.4218 16.55 89.0373 10.6509 89.5664C16.1955 87.4882 21.2546 84.63 21.2546 84.63L38.6546 75.0382L38.6491 74.8827C38.6491 73.2436 38.7691 71.6318 38.9791 70.05L1.25274 61.5C0.85456 63.7009 0.557287 65.9345 0.355469 68.1955L17.4064 72.0682L17.4037 72.0655Z" fill="black"/>
</g>
<defs>
<clipPath id="clip0_925_1175">
<rect width="520.909" height="150" fill="white" transform="translate(0.351562)"/>
</clipPath>
</defs>
</svg>
