<svg width="651" height="150" viewBox="0 0 651 150" fill="none" xmlns="http://www.w3.org/2000/svg">
<g clip-path="url(#clip0_925_1219)">
<path d="M435.014 1.63485C436.382 0.00724998 438.654 0.188095 440.573 0.0465641C447.091 -0.0556527 453.617 0.00724995 460.128 0.266724C460.686 9.06522 460.096 17.8794 460.497 26.6937C470.389 26.906 480.288 26.4421 490.179 26.9296C490.439 34.2656 490.494 41.6173 490.14 48.9612C480.193 49.3543 470.247 49.0398 460.316 49.1342C460.466 61.4788 460.214 73.8313 460.403 86.1759C460.214 89.7928 463.045 92.9301 466.496 93.6535C474.163 95.3361 481.931 93.2446 489.605 92.6077C490.281 100.046 490.384 107.539 489.621 114.977C480.217 116.998 470.538 117.195 460.953 116.754C452.658 116.275 444.355 112.32 439.629 105.345C436.099 100.463 434.699 94.369 434.746 88.4168C434.786 63.759 434.77 39.1012 434.754 14.4434C434.794 10.1739 434.463 5.88078 435.014 1.63485Z" fill="#2E5E9D"/>
<path d="M99.3131 50.4932C92.9521 53.772 86.1901 59.1973 85.6869 66.8872C84.8298 73.3504 85.5689 80.427 89.6576 85.7501C94.8706 92.7716 104.408 95.382 112.782 93.8173C118.035 92.8659 122.107 88.9738 125.457 85.0896C130.623 79.0116 130.497 70.1267 128.382 62.8614C124.6 51.2637 110.164 46.4753 99.3131 50.4932ZM100.941 25.0334C110.864 22.187 121.738 23.7675 130.89 28.3515C143.722 35.6796 153.166 48.9914 155.092 63.742C155.462 69.6392 155.611 75.6306 154.77 81.5042C153.464 87.7237 151.231 93.7859 148.039 99.2741C139.657 111.406 125.418 119.859 110.51 119.788C101.735 119.828 94.3045 114.827 86.5596 111.485C86.0879 124.309 86.3709 137.157 86.4181 149.997C77.541 149.738 68.6717 149.989 59.7946 149.84C59.37 108.772 59.8575 67.7049 59.543 26.6374C67.8225 26.5824 76.0942 26.6374 84.3738 26.5745C84.5546 28.666 84.7433 30.7418 84.9635 32.8333C90.1372 29.9555 95.0829 26.4251 100.941 25.0334Z" fill="#2E5E9D"/>
<path d="M272.672 49.7811C264.172 51.1256 256.451 58.1628 255.688 66.9456C255.515 72.253 254.855 78.0479 257.583 82.8678C263.952 95.6528 283.554 98.0352 293.312 87.9158C302.771 78.5747 301.505 60.7497 290.552 53.0913C285.441 49.3958 278.773 48.4365 272.672 49.7811ZM248.651 31.5157C259.525 23.8888 274.134 21.4985 286.778 25.8152C292.101 27.0732 295.93 31.2169 300.561 33.851C300.703 31.5393 300.836 29.2355 300.994 26.916C308.99 26.6644 317.002 26.5857 324.983 27.0025C325.211 56.834 325.243 86.6734 324.96 116.513C316.633 116.867 308.306 116.804 299.979 116.544C299.712 114.028 299.46 111.504 299.209 108.988C292.062 115.168 283.09 119.847 273.434 119.799C262.489 119.564 251.521 115.168 243.902 107.211C238.469 102.202 235.166 95.4641 232.225 88.8121C229.977 83.6226 229.977 77.8513 229.961 72.308C229.969 66.5839 229.827 60.6868 231.895 55.2457C235.371 46.1327 240.363 37.0669 248.651 31.5157Z" fill="#2E5E9D"/>
<path d="M376.116 24.6253C394.247 20.5838 414.172 29.0599 424.527 44.3217C417.859 49.4875 410.877 54.2052 404.147 59.2846C400.113 55.3689 396.166 50.494 390.269 49.6055C384.081 48.7013 377.146 48.9922 372.043 53.0573C362.057 59.6699 360.39 74.5542 366.437 84.3356C373.222 95.7838 391.55 97.8282 400.514 87.9289C402.063 86.4035 403.565 84.8545 405.074 83.2977C411.467 88.8803 419.196 92.5994 425.746 97.954C422.152 103.631 416.664 107.649 411.435 111.675C402.519 117.839 391.315 120.591 380.542 119.545C356.781 117.525 336.29 95.2334 337.226 71.244C337.124 55.9508 345.215 40.9957 357.669 32.2286C363.299 28.6511 369.597 26.0563 376.116 24.6253Z" fill="#2E5E9D"/>
<path d="M538.483 49.9445C530.707 52.5864 522.946 59.2147 522.679 68.0054C522.058 74.4372 522.75 81.5294 527.058 86.6638C535.495 96.3272 552.935 97.0821 561.104 86.6638C569.691 76.9218 567.898 59.6472 556.811 52.5549C551.504 48.938 544.585 48.482 538.483 49.9445ZM536.392 24.3117C554.154 21.0486 573.52 28.9979 583.679 43.9608C590.849 53.1132 592.902 65.2612 592.194 76.6073C591.416 90.092 583.765 102.523 573.095 110.543C567.945 114.632 561.45 116.315 555.317 118.327C532.523 124.523 506.308 110.378 499.13 87.8275C494.781 73.698 495.914 57.3119 504.319 44.8493C511.883 34.2345 523.426 26.411 536.392 24.3117Z" fill="#2E5E9D"/>
<path d="M203.257 27.8116C209.485 25.3741 216.357 25.3112 222.883 26.3255C223.606 34.7623 223.449 43.2542 223.032 51.6989C216.129 51.4158 208.73 50.6217 202.329 53.8061C196.487 57.4073 193.452 64.4917 193.476 71.1987C193.279 86.3031 193.751 101.4 193.295 116.496C184.874 116.874 176.437 116.803 168.016 116.544C167.615 92.8686 167.961 69.1936 167.851 45.5187C167.827 39.3306 167.749 33.1347 168.032 26.9388C176.115 26.6479 184.206 26.6165 192.296 26.9624C192.407 29.9188 192.509 32.8753 192.564 35.8317C195.756 32.7259 199.051 29.5021 203.257 27.8116Z" fill="#2E5E9D"/>
<path d="M19.8969 46.2945C25.9041 45.4768 32.5954 45.123 37.9107 48.5669C44.6019 52.2152 50.1609 58.993 50.1688 66.903C50.1924 72.1947 50.9079 78.0053 47.9987 82.7308C44.2953 88.9032 38.2724 94.1398 30.9757 95.2485C25.2043 95.9561 19.0006 95.8067 13.819 92.8346C7.53658 89.5951 3.30638 83.3363 1.33282 76.6843C-2.28408 63.8129 6.76603 48.9286 19.8969 46.2945Z" fill="#00B0EE"/>
<path d="M620.98 46.7112C634.024 43.3302 648.39 53.2217 650.52 66.384C652.124 74.4041 649.129 82.8881 643.2 88.4314C633.372 99.4157 613.911 96.5615 606.04 84.6494C599.506 75.4734 600.513 61.7764 608.486 53.7642C611.741 50.1158 616.333 47.9772 620.98 46.7112Z" fill="#00B0EE"/>
</g>
<defs>
<clipPath id="clip0_925_1219">
<rect width="650.423" height="150" fill="white" transform="translate(0.53125)"/>
</clipPath>
</defs>
</svg>
