<svg width="151" height="150" viewBox="0 0 151 150" fill="none" xmlns="http://www.w3.org/2000/svg">
<g clip-path="url(#clip0_962_1013)">
<path d="M150.873 53.0064V123.342C150.873 131.03 144.395 137.262 136.522 137.046C128.926 136.835 122.975 130.507 122.975 123.035V53.004C122.975 51.886 123.903 50.9696 125.049 50.9696H130.714C131.86 50.9696 132.786 51.879 132.786 53.0064V123.181C132.786 125.285 134.525 127.275 136.667 127.406C139.074 127.554 141.076 125.672 141.076 123.342V53.0064C141.076 51.8837 142.004 50.9673 143.15 50.9673H148.815C149.961 50.9673 150.887 51.8814 150.887 53.0064H150.873ZM25.5383 102.37H2.95859C2.68877 102.368 2.42111 102.419 2.17092 102.52C1.92072 102.621 1.6929 102.77 1.50048 102.959C1.30805 103.148 1.1548 103.374 1.04949 103.622C0.944174 103.871 0.888864 104.137 0.886719 104.407L0.886719 110.016C0.886719 111.138 1.8125 112.048 2.95859 112.048H9.44609V147.963C9.44609 149.088 10.3719 150 11.518 150H16.9883C17.2582 150.003 17.526 149.952 17.7763 149.851C18.0266 149.75 18.2546 149.6 18.4472 149.411C18.6398 149.222 18.7933 148.997 18.8989 148.749C19.0045 148.5 19.06 148.233 19.0625 147.963V112.048H25.55C26.0947 112.052 26.6189 111.84 27.0074 111.458C27.3959 111.076 27.6169 110.556 27.6219 110.011V104.4C27.6194 104.13 27.5639 103.864 27.4584 103.616C27.353 103.368 27.1997 103.143 27.0073 102.954C26.8149 102.765 26.5872 102.616 26.3371 102.515C26.0871 102.414 25.8196 102.363 25.55 102.366L25.5383 102.37ZM120.336 74.9837C120.336 88.5306 109.121 99.5462 95.3398 99.5462H95.0117C81.2305 99.5462 70.0156 88.5235 70.0156 74.9837C70.0156 61.4415 81.2305 50.4212 95.0117 50.4212H95.3398C109.126 50.4212 120.336 61.4415 120.336 74.9837ZM110.71 74.9837C110.71 66.661 103.815 59.8806 95.3398 59.8806H95C86.532 59.8806 79.6367 66.654 79.6367 74.9837C79.6367 83.311 86.5273 90.0821 95 90.0821H95.3398C103.81 90.0821 110.71 83.3087 110.71 74.9837ZM148.798 140.36H125.045C124.775 140.357 124.507 140.408 124.256 140.509C124.006 140.61 123.778 140.759 123.585 140.948C123.392 141.138 123.239 141.363 123.133 141.611C123.028 141.86 122.972 142.127 122.97 142.397V147.963C122.97 149.088 123.898 150 125.045 150H148.798C149.068 150.003 149.336 149.952 149.587 149.851C149.837 149.751 150.065 149.601 150.258 149.412C150.451 149.223 150.604 148.998 150.71 148.749C150.815 148.5 150.871 148.233 150.873 147.963V142.397C150.871 142.127 150.815 141.86 150.71 141.611C150.604 141.363 150.451 141.138 150.258 140.948C150.065 140.759 149.837 140.61 149.587 140.509C149.336 140.408 149.068 140.357 148.798 140.36ZM2.95859 47.6017H14.2391C14.509 47.6038 14.7767 47.5528 15.0269 47.4515C15.2771 47.3502 15.5049 47.2006 15.6973 47.0113C15.8897 46.8219 16.0429 46.5965 16.1482 46.348C16.2535 46.0994 16.3088 45.8325 16.3109 45.5626V39.9985C16.3088 39.7286 16.2535 39.4618 16.1482 39.2132C16.0429 38.9646 15.8897 38.7392 15.6973 38.5499C15.5049 38.3605 15.2771 38.211 15.0269 38.1096C14.7767 38.0083 14.509 37.9573 14.2391 37.9595H10.6906V2.03917C10.6888 1.76935 10.6338 1.50254 10.5287 1.25399C10.4237 1.00545 10.2707 0.78004 10.0785 0.590663C9.88631 0.401287 9.65866 0.251655 9.40859 0.150323C9.15851 0.0489908 8.89091 -0.00205339 8.62109 0.000109035H2.95859C2.68877 -0.00236369 2.42111 0.048374 2.17092 0.149421C1.92072 0.250467 1.6929 0.399841 1.50048 0.589C1.30805 0.778159 1.1548 1.00339 1.04949 1.25182C0.944174 1.50025 0.888864 1.76701 0.886719 2.03683L0.886719 45.5696C0.886719 46.69 1.8125 47.6064 2.95859 47.6064V47.6017ZM132.777 9.63292H148.798C149.068 9.63571 149.336 9.58527 149.586 9.48451C149.837 9.38375 150.065 9.23464 150.257 9.04569C150.45 8.85675 150.603 8.63169 150.709 8.38338C150.815 8.13506 150.87 7.86837 150.873 7.59855V2.03683C150.871 1.76681 150.815 1.49986 150.71 1.25128C150.604 1.00269 150.451 0.777354 150.258 0.588164C150.065 0.398974 149.837 0.24965 149.587 0.148742C149.336 0.0478349 149.068 -0.00267374 148.798 0.000109035H125.045C124.775 -0.00267374 124.507 0.0478349 124.256 0.148742C124.006 0.24965 123.778 0.398974 123.585 0.588164C123.392 0.777354 123.239 1.00269 123.133 1.25128C123.028 1.49986 122.972 1.76681 122.97 2.03683V45.5696C122.97 46.69 123.898 47.6064 125.045 47.6064H148.798C149.069 47.6091 149.337 47.5586 149.587 47.4575C149.838 47.3564 150.066 47.2069 150.259 47.0175C150.452 46.828 150.605 46.6024 150.71 46.3536C150.816 46.1047 150.871 45.8375 150.873 45.5673V40.0032C150.87 39.7333 150.815 39.4665 150.709 39.2181C150.603 38.9696 150.45 38.7444 150.257 38.5553C150.065 38.3661 149.837 38.2168 149.586 38.1158C149.336 38.0148 149.068 37.964 148.798 37.9665H132.777V28.629H148.032C148.302 28.6315 148.569 28.5808 148.819 28.4799C149.069 28.379 149.297 28.2299 149.489 28.041C149.682 27.852 149.835 27.6271 149.94 27.3789C150.046 27.1308 150.101 26.8643 150.104 26.5946V21.0282C150.102 20.7583 150.046 20.4914 149.941 20.2429C149.836 19.9943 149.683 19.7689 149.49 19.5796C149.298 19.3902 149.07 19.2406 148.82 19.1393C148.57 19.038 148.302 18.987 148.032 18.9892H132.774V9.63761L132.777 9.63292ZM19.0672 45.0142L32.4781 1.47433C32.6134 1.04467 32.8828 0.669669 33.2468 0.404349C33.6109 0.139029 34.0503 -0.00264568 34.5008 0.000109035H41.6305C42.059 -0.00325608 42.478 0.12697 42.8292 0.37269C43.1803 0.618409 43.4462 0.967415 43.5898 1.3712L58.9039 44.8853C59.3773 46.2306 58.3625 47.6345 56.907 47.6345H50.9727C50.5446 47.6367 50.1265 47.5059 49.776 47.2604C49.4254 47.0148 49.1597 46.6664 49.0156 46.2634L46.9484 40.3899C46.8005 39.9792 46.5287 39.6245 46.1707 39.3747C45.8126 39.1249 45.3858 38.9924 44.9492 38.9954H32.7242C32.2737 38.992 31.8339 39.1331 31.4694 39.398C31.105 39.6629 30.835 40.0377 30.6992 40.4673L28.9367 46.186C28.8033 46.6066 28.5389 46.9736 28.1822 47.2333C27.8255 47.493 27.3951 47.632 26.9539 47.6298H21.0359C19.6438 47.6298 18.6477 46.3126 19.0508 45.0048L19.0672 45.0118V45.0142ZM34.1328 29.3673H43.0742L38.8977 17.5056C38.7148 16.9759 37.9461 16.99 37.782 17.5243L34.1352 29.3603V29.3673H34.1328ZM61.925 45.572V2.07667C61.925 0.954015 62.8508 0.037609 63.9969 0.037609H102.137C111.582 0.037609 119.717 7.62667 119.773 16.9056C119.809 23.304 116.216 28.8939 110.905 31.8118L119.202 44.4587C120.087 45.8087 119.101 47.597 117.46 47.597H110.724C110.021 47.597 109.365 47.2454 108.985 46.6665L100.655 33.9704H73.8008C73.5309 33.9683 73.2631 34.0193 73.0129 34.1206C72.7627 34.2219 72.5349 34.3715 72.3425 34.5608C72.1501 34.7502 71.9969 34.9756 71.8916 35.2241C71.7863 35.4727 71.731 35.7396 71.7289 36.0095V45.5696C71.724 46.1144 71.503 46.6349 71.1145 47.0168C70.726 47.3987 70.2018 47.6107 69.657 47.6064H63.9922C63.7223 47.6085 63.4545 47.5575 63.2043 47.4562C62.9541 47.3549 62.7263 47.2053 62.5339 47.0159C62.3415 46.8266 62.1883 46.6012 62.083 46.3526C61.9778 46.1041 61.9225 45.8372 61.9203 45.5673H61.925V45.572ZM71.7289 24.3446H102.512C106.986 24.3446 110.558 20.447 109.895 15.9282C109.362 12.286 105.999 9.68214 102.247 9.68214H71.7312V24.3446H71.7289ZM0.886719 96.9657V53.011C0.886719 51.886 1.8125 50.9743 2.95859 50.9743H42.9969C56.7172 50.9743 67.8336 62.1423 67.4187 75.7126C67.025 88.7743 55.7703 98.9954 42.4742 98.9954H2.95859C2.68897 98.9979 2.4215 98.9472 2.17146 98.8463C1.92141 98.7454 1.69369 98.5963 1.5013 98.4074C1.3089 98.2185 1.15561 97.9935 1.05016 97.7453C0.944706 97.4972 0.88917 97.2307 0.886719 96.961L0.886719 96.9657ZM10.4961 89.5525H42.6336C50.6586 89.5525 57.5047 83.4329 57.8094 75.5462C58.1281 67.2587 51.3617 60.4173 42.9969 60.4173H10.4961V89.5548V89.5525ZM40.6133 112.031H117.662C117.932 112.034 118.2 111.984 118.45 111.883C118.701 111.782 118.929 111.632 119.121 111.443C119.314 111.254 119.467 111.029 119.573 110.78C119.678 110.532 119.734 110.265 119.736 109.995V104.428C119.734 104.158 119.678 103.891 119.573 103.643C119.467 103.394 119.314 103.169 119.121 102.98C118.929 102.79 118.701 102.641 118.45 102.54C118.2 102.439 117.932 102.389 117.662 102.392H32.8836C32.6137 102.389 32.3459 102.44 32.0956 102.541C31.8452 102.642 31.6173 102.791 31.4246 102.98C31.232 103.169 31.0786 103.395 30.973 103.643C30.8674 103.891 30.8118 104.158 30.8094 104.428V147.961C30.8094 149.086 31.7375 149.998 32.8836 149.998H117.659C117.93 150.001 118.198 149.95 118.448 149.849C118.699 149.748 118.927 149.598 119.12 149.409C119.313 149.219 119.466 148.994 119.571 148.745C119.677 148.496 119.732 148.229 119.734 147.959V142.395C119.731 142.125 119.676 141.858 119.571 141.609C119.465 141.361 119.312 141.135 119.119 140.946C118.926 140.757 118.698 140.607 118.448 140.507C118.197 140.406 117.929 140.355 117.659 140.358H40.6156V131.023H116.923C117.193 131.025 117.461 130.974 117.712 130.873C117.962 130.772 118.19 130.622 118.382 130.433C118.575 130.244 118.728 130.018 118.833 129.769C118.938 129.521 118.993 129.254 118.995 128.984V123.42C118.993 123.15 118.938 122.883 118.833 122.634C118.728 122.385 118.575 122.16 118.382 121.97C118.19 121.781 117.962 121.631 117.712 121.53C117.461 121.429 117.193 121.378 116.923 121.381H40.6133V112.017L40.6086 112.031H40.6133Z" fill="#F23557"/>
</g>
<defs>
<clipPath id="clip0_962_1013">
<rect width="150" height="150" fill="white" transform="translate(0.886719)"/>
</clipPath>
</defs>
</svg>
