<svg width="215" height="150" viewBox="0 0 215 150" fill="none" xmlns="http://www.w3.org/2000/svg">
<g clip-path="url(#clip0_962_1018)">
<path d="M89.1596 16.4412C96.0612 9.25002 105.67 4.79021 116.296 4.79021C130.423 4.79021 142.747 12.6673 149.31 24.3609C155.014 21.8124 161.327 20.3949 167.97 20.3949C193.448 20.3949 214.104 41.2307 214.104 66.9317C214.104 92.6357 193.448 113.471 167.97 113.471C164.86 113.471 161.821 113.161 158.882 112.566C153.103 122.876 142.089 129.841 129.447 129.841C124.155 129.841 119.15 128.619 114.693 126.445C108.834 140.227 95.1832 149.891 79.2737 149.891C62.7057 149.891 48.5855 139.407 43.1655 124.705C40.7969 125.208 38.3429 125.47 35.8249 125.47C16.0988 125.47 0.106934 109.313 0.106934 89.38C0.106934 76.022 7.29199 64.3588 17.9675 58.1188C15.7696 53.0615 14.5472 47.4799 14.5472 41.6117C14.5472 18.6878 33.1576 0.104828 56.112 0.104828C69.5889 0.104828 81.5661 6.51256 89.1596 16.4412Z" fill="#00A1E0"/>
<path d="M31.1026 77.7808C30.9684 78.1314 31.1513 78.2046 31.194 78.2655C31.5964 78.5582 32.0049 78.7685 32.4164 79.0032C34.5991 80.1616 36.6598 80.5 38.815 80.5C43.2047 80.5 45.9299 78.1649 45.9299 74.4063V74.3331C45.9299 70.8579 42.8541 69.5959 39.9673 68.6844L39.5923 68.5625C37.4158 67.8553 35.538 67.2456 35.538 65.8128V65.7366C35.538 64.5112 36.6354 63.6089 38.3364 63.6089C40.2264 63.6089 42.47 64.2368 43.915 65.0355C43.915 65.0355 44.3387 65.3099 44.4942 64.8983C44.5795 64.6788 45.3111 62.7096 45.3873 62.4962C45.4696 62.2645 45.3233 62.0938 45.1739 62.0024C43.5248 60.9994 41.2446 60.3135 38.8851 60.3135L38.4461 60.3166C34.4284 60.3166 31.6238 62.7431 31.6238 66.2213V66.2945C31.6238 69.9617 34.718 71.1506 37.617 71.9797L38.0834 72.123C40.1959 72.7723 42.0158 73.3302 42.0158 74.8178V74.891C42.0158 76.2505 40.833 77.2626 38.9247 77.2626C38.184 77.2626 35.8215 77.2474 33.27 75.6348C32.9621 75.4549 32.7822 75.3238 32.5445 75.1806C32.4195 75.1013 32.1055 74.9641 31.9683 75.3787L31.1026 77.7808Z" fill="white"/>
<path d="M95.3657 77.7808C95.2316 78.1314 95.4145 78.2046 95.4572 78.2655C95.8596 78.5582 96.2681 78.7685 96.6796 79.0032C98.8623 80.1616 100.923 80.5 103.078 80.5C107.468 80.5 110.193 78.1649 110.193 74.4063V74.3331C110.193 70.8579 107.117 69.5959 104.23 68.6844L103.856 68.5625C101.679 67.8553 99.8012 67.2456 99.8012 65.8128V65.7366C99.8012 64.5112 100.899 63.6089 102.6 63.6089C104.49 63.6089 106.733 64.2368 108.178 65.0355C108.178 65.0355 108.602 65.3099 108.757 64.8983C108.843 64.6788 109.574 62.7096 109.651 62.4962C109.733 62.2645 109.586 62.0938 109.437 62.0024C107.788 60.9994 105.508 60.3135 103.148 60.3135L102.709 60.3166C98.6915 60.3166 95.887 62.7431 95.887 66.2213V66.2945C95.887 69.9617 98.9811 71.1506 101.88 71.9797L102.347 72.123C104.459 72.7723 106.282 73.3302 106.282 74.8178V74.891C106.282 76.2505 105.096 77.2626 103.188 77.2626C102.447 77.2626 100.085 77.2474 97.5332 75.6348C97.2253 75.4549 97.0424 75.3299 96.8107 75.1806C96.7314 75.1287 96.3595 74.9855 96.2315 75.3787L95.3657 77.7808Z" fill="white"/>
<path d="M139.236 70.4188C139.236 72.5435 138.84 74.2171 138.06 75.3998C137.288 76.5704 136.121 77.1405 134.493 77.1405C132.862 77.1405 131.701 76.5735 130.942 75.3998C130.173 74.2201 129.783 72.5435 129.783 70.4188C129.783 68.2971 130.173 66.6266 130.942 65.456C131.701 64.2976 132.862 63.7336 134.493 63.7336C136.121 63.7336 137.288 64.2976 138.063 65.456C138.84 66.6266 139.236 68.2971 139.236 70.4188ZM142.901 66.4802C142.541 65.2639 141.98 64.1909 141.233 63.2977C140.486 62.4015 139.541 61.6821 138.419 61.1578C137.301 60.6365 135.978 60.3713 134.493 60.3713C133.005 60.3713 131.682 60.6365 130.564 61.1578C129.442 61.6821 128.497 62.4015 127.747 63.2977C127.003 64.194 126.442 65.267 126.079 66.4802C125.723 67.6905 125.543 69.0135 125.543 70.4188C125.543 71.8241 125.723 73.1501 126.079 74.3573C126.442 75.5706 127 76.6436 127.75 77.5398C128.497 78.436 129.445 79.1524 130.564 79.6615C131.685 80.1706 133.005 80.4297 134.493 80.4297C135.978 80.4297 137.298 80.1706 138.419 79.6615C139.538 79.1524 140.486 78.436 141.233 77.5398C141.98 76.6466 142.541 75.5736 142.901 74.3573C143.26 73.1471 143.44 71.821 143.44 70.4188C143.44 69.0165 143.26 67.6905 142.901 66.4802Z" fill="white"/>
<path fill-rule="evenodd" clip-rule="evenodd" d="M172.99 76.5709C172.868 76.2142 172.524 76.3484 172.524 76.3484C171.99 76.5526 171.423 76.7416 170.819 76.8361C170.207 76.9306 169.533 76.9794 168.811 76.9794C167.036 76.9794 165.628 76.452 164.619 75.4095C163.607 74.3669 163.04 72.6812 163.046 70.401C163.052 68.325 163.552 66.7642 164.451 65.5753C165.345 64.3926 166.704 63.7859 168.518 63.7859C170.03 63.7859 171.182 63.9597 172.389 64.3407C172.389 64.3407 172.679 64.4657 172.816 64.0877C173.136 63.1976 173.374 62.5605 173.715 61.582C173.813 61.3046 173.575 61.1857 173.49 61.1521C173.014 60.9662 171.892 60.6644 171.045 60.5364C170.252 60.4144 169.326 60.3504 168.295 60.3504C166.756 60.3504 165.384 60.6126 164.211 61.1369C163.04 61.6582 162.046 62.3776 161.26 63.2738C160.473 64.17 159.876 65.2431 159.476 66.4563C159.08 67.6665 158.879 68.9956 158.879 70.401C158.879 73.4402 159.699 75.8972 161.318 77.6958C162.939 79.5004 165.375 80.418 168.551 80.418C170.429 80.418 172.356 80.0369 173.74 79.4913C173.74 79.4913 174.005 79.3632 173.889 79.0553L172.99 76.5709Z" fill="white"/>
<path fill-rule="evenodd" clip-rule="evenodd" d="M179.401 68.3833C179.575 67.2035 179.901 66.222 180.404 65.4568C181.163 64.2954 182.322 63.6583 183.949 63.6583C185.577 63.6583 186.653 64.2984 187.425 65.4568C187.937 66.222 188.159 67.2462 188.248 68.3833H179.401ZM191.738 65.7891C191.427 64.6155 190.656 63.4296 190.15 62.887C189.351 62.0274 188.571 61.4268 187.796 61.0915C186.784 60.6586 185.571 60.3721 184.242 60.3721C182.693 60.3721 181.288 60.6312 180.148 61.1677C179.005 61.7042 178.045 62.4359 177.292 63.3473C176.539 64.2557 175.972 65.3379 175.612 66.5664C175.249 67.7888 175.066 69.121 175.066 70.5263C175.066 71.956 175.255 73.2881 175.63 74.4862C176.008 75.6933 176.612 76.7572 177.429 77.6382C178.243 78.5253 179.291 79.2203 180.547 79.705C181.794 80.1866 183.309 80.4366 185.05 80.4336C188.632 80.4214 190.519 79.6227 191.296 79.1929C191.433 79.1167 191.564 78.9825 191.4 78.5984L190.589 76.3274C190.467 75.989 190.122 76.114 190.122 76.114C189.235 76.4432 187.973 77.0346 185.032 77.0285C183.108 77.0255 181.681 76.4585 180.788 75.5714C179.871 74.663 179.423 73.3278 179.343 71.4439L191.747 71.4561C191.747 71.4561 192.073 71.45 192.107 71.1329C192.119 70.9988 192.534 68.5845 191.738 65.7891Z" fill="white"/>
<path fill-rule="evenodd" clip-rule="evenodd" d="M80.0638 68.3833C80.2406 67.2035 80.5638 66.222 81.0667 65.4568C81.8258 64.2954 82.9842 63.6583 84.612 63.6583C86.2399 63.6583 87.3159 64.2984 88.0902 65.4568C88.5993 66.222 88.8218 67.2462 88.9103 68.3833H80.0638ZM92.3976 65.7891C92.0867 64.6155 91.3185 63.4296 90.8124 62.887C90.0138 62.0274 89.2334 61.4268 88.4591 61.0915C87.447 60.6586 86.2338 60.3721 84.9047 60.3721C83.3591 60.3721 81.9508 60.6312 80.8107 61.1677C79.6675 61.7042 78.7073 62.4359 77.9543 63.3473C77.2014 64.2557 76.6344 65.3379 76.2747 66.5664C75.915 67.7888 75.729 69.121 75.729 70.5263C75.729 71.956 75.918 73.2881 76.293 74.4862C76.671 75.6933 77.2745 76.7572 78.0915 77.6382C78.9054 78.5253 79.9541 79.2203 81.21 79.705C82.4568 80.1866 83.9719 80.4366 85.7125 80.4336C89.2943 80.4214 91.1813 79.6227 91.9586 79.1929C92.0958 79.1167 92.2269 78.9825 92.0623 78.5984L91.2545 76.3274C91.1295 75.989 90.785 76.114 90.785 76.114C89.8979 76.4432 88.6389 77.0346 85.6911 77.0285C83.7707 77.0255 82.344 76.4585 81.4508 75.5714C80.5333 74.663 80.0852 73.3278 80.0059 71.4439L92.4098 71.4561C92.4098 71.4561 92.736 71.45 92.7695 71.1329C92.7817 70.9988 93.1963 68.5845 92.3976 65.7891Z" fill="white"/>
<path d="M53.253 76.5034C52.7683 76.1162 52.7013 76.0187 52.5367 75.7687C52.2928 75.3876 52.1678 74.845 52.1678 74.1561C52.1678 73.0648 52.5275 72.2813 53.2744 71.754C53.2652 71.757 54.3413 70.8242 56.8715 70.8577C58.6487 70.8821 60.2369 71.1443 60.2369 71.1443V76.7838H60.2399C60.2399 76.7838 58.6639 77.1222 56.8898 77.2289C54.3657 77.3813 53.2439 76.5003 53.253 76.5034ZM58.1884 67.788C57.6854 67.7514 57.033 67.7301 56.2526 67.7301C55.1888 67.7301 54.1614 67.8642 53.1982 68.1233C52.2288 68.3824 51.3569 68.7879 50.607 69.3244C49.8541 69.864 49.2474 70.5529 48.8085 71.3699C48.3695 72.1868 48.147 73.1501 48.147 74.2293C48.147 75.3267 48.336 76.2808 48.714 77.0612C49.092 77.8447 49.6376 78.497 50.3327 79C51.0216 79.503 51.8721 79.8718 52.8598 80.0944C53.8322 80.3169 54.9357 80.4297 56.1429 80.4297C57.4141 80.4297 58.6822 80.326 59.9107 80.1157C61.127 79.9084 62.6207 79.6066 63.0353 79.5121C63.4469 79.4146 63.9041 79.2896 63.9041 79.2896C64.212 79.2134 64.1876 78.8842 64.1876 78.8842L64.1815 67.5411C64.1815 65.0536 63.517 63.2093 62.2092 62.0662C60.9075 60.9261 58.9901 60.3499 56.5118 60.3499C55.582 60.3499 54.0852 60.478 53.189 60.6578C53.189 60.6578 50.479 61.1821 49.3633 62.054C49.3633 62.054 49.1194 62.2064 49.2535 62.5478L50.1315 64.9073C50.2412 65.2121 50.5369 65.1085 50.5369 65.1085C50.5369 65.1085 50.6314 65.0719 50.7412 65.0079C53.128 63.7093 56.146 63.7489 56.146 63.7489C57.4872 63.7489 58.5176 64.0171 59.2126 64.5506C59.8894 65.0688 60.2338 65.8523 60.2338 67.5045V68.0288C59.1669 67.8764 58.1884 67.788 58.1884 67.788Z" fill="white"/>
<path fill-rule="evenodd" clip-rule="evenodd" d="M158.231 61.3986C158.326 61.1182 158.127 60.984 158.045 60.9536C157.835 60.8712 156.78 60.6487 155.966 60.5969C154.408 60.5024 153.543 60.7646 152.768 61.1121C152 61.4596 151.147 62.0205 150.671 62.6576V61.1487C150.671 60.9383 150.522 60.7707 150.314 60.7707H147.135C146.928 60.7707 146.778 60.9383 146.778 61.1487V79.6493C146.778 79.8566 146.949 80.0273 147.156 80.0273H150.415C150.622 80.0273 150.79 79.8566 150.79 79.6493V70.4066C150.79 69.1659 150.927 67.9283 151.202 67.1509C151.47 66.3827 151.836 65.767 152.287 65.3249C152.741 64.886 153.256 64.5781 153.82 64.4043C154.396 64.2275 155.033 64.1696 155.485 64.1696C156.134 64.1696 156.847 64.3373 156.847 64.3373C157.085 64.3647 157.219 64.2184 157.298 64.0019C157.512 63.4349 158.115 61.737 158.231 61.3986Z" fill="white"/>
<path fill-rule="evenodd" clip-rule="evenodd" d="M127.643 52.825C127.246 52.7031 126.887 52.6208 126.417 52.5324C125.942 52.447 125.375 52.4043 124.731 52.4043C122.488 52.4043 120.72 53.0384 119.479 54.2882C118.245 55.532 117.406 57.425 116.986 59.9156L116.833 60.7539H114.016C114.016 60.7539 113.675 60.7417 113.602 61.1136L113.141 63.6956C113.108 63.9394 113.215 64.0949 113.544 64.0949H116.284L113.504 79.6173C113.288 80.8672 113.038 81.8945 112.76 82.6749C112.489 83.4431 112.224 84.0192 111.895 84.4399C111.578 84.8423 111.279 85.141 110.761 85.3148C110.334 85.458 109.84 85.5251 109.301 85.5251C109.002 85.5251 108.602 85.4763 108.307 85.4154C108.014 85.3574 107.859 85.2934 107.636 85.1989C107.636 85.1989 107.316 85.077 107.188 85.3971C107.087 85.6623 106.356 87.6712 106.267 87.9181C106.182 88.165 106.304 88.3571 106.459 88.415C106.825 88.543 107.097 88.6284 107.593 88.7473C108.282 88.9088 108.865 88.918 109.41 88.918C110.55 88.918 111.593 88.7564 112.456 88.4455C113.321 88.1315 114.077 87.5858 114.748 86.8481C115.47 86.0494 115.925 85.2142 116.358 84.071C116.787 82.9431 117.156 81.5409 117.449 79.9069L120.244 64.0949H124.329C124.329 64.0949 124.674 64.1071 124.744 63.7322L125.207 61.1532C125.238 60.9063 125.134 60.7539 124.802 60.7539H120.836C120.857 60.6655 121.037 59.2693 121.491 57.9555C121.686 57.3976 122.052 56.9434 122.36 56.6325C122.665 56.3276 123.015 56.1112 123.399 55.9862C123.793 55.8582 124.241 55.7972 124.731 55.7972C125.103 55.7972 125.472 55.8399 125.75 55.8978C126.134 55.9801 126.283 56.0228 126.384 56.0533C126.789 56.1752 126.844 56.0563 126.923 55.8612L127.871 53.2579C127.969 52.9774 127.728 52.8585 127.643 52.825Z" fill="white"/>
<path fill-rule="evenodd" clip-rule="evenodd" d="M72.2304 79.6485C72.2304 79.8558 72.0811 80.0234 71.8738 80.0234H68.5846C68.3773 80.0234 68.231 79.8558 68.231 79.6485V53.1762C68.231 52.969 68.3773 52.8013 68.5846 52.8013H71.8738C72.0811 52.8013 72.2304 52.969 72.2304 53.1762V79.6485Z" fill="white"/>
</g>
<defs>
<clipPath id="clip0_962_1018">
<rect width="214.211" height="150" fill="white"/>
</clipPath>
</defs>
</svg>
