<svg width="838" height="150" viewBox="0 0 838 150" fill="none" xmlns="http://www.w3.org/2000/svg">
<g clip-path="url(#clip0_990_902)">
<path d="M299.097 148.685C268.775 148.685 240.628 139.592 221.84 122.729C207.646 109.988 200.825 92.6823 200.825 74.8706C200.825 57.2758 207.94 39.8508 221.839 27.1775C239.287 11.2752 270.093 1.31641 299.097 1.31641C331.194 1.31641 356.884 9.40114 376.523 27.2212C390.495 39.9012 397.25 57.249 397.25 74.8723C397.25 91.9545 390.082 110.146 376.523 122.729C358.235 139.701 329.497 148.685 299.097 148.685V129.248C315.191 129.248 330.12 123.692 340.546 113.318C350.9 103.014 355.724 90.3493 355.724 74.8706C355.724 60.0425 350.52 46.1791 340.546 36.3463C330.26 26.2143 314.974 20.513 299.097 20.513C283.172 20.513 267.876 26.1555 257.581 36.3463C247.661 46.1757 242.444 60.0794 242.444 74.8706C242.444 89.6164 247.722 103.512 257.581 113.319C267.885 123.569 283.126 129.25 299.097 129.25V148.687V148.685ZM77.4749 1.387C61.2551 1.387 42.8283 4.42088 27.1715 11.4131C12.7215 17.8607 0.893558 28.2885 0.893558 45.5757C0.886835 61.1451 10.7818 70.2635 10.5129 70.0114C14.7216 73.8857 21.497 80.4829 39.2111 84.3572C47.1278 86.0884 64.0536 88.7475 80.9089 90.509C97.6397 92.2738 114.105 93.9513 120.811 95.6489C126.14 97.0053 135.09 98.8525 135.09 108.894C135.09 118.895 125.661 121.947 124.022 122.609C122.385 123.256 111.073 128.447 90.7383 128.447C75.7252 128.447 57.6766 123.932 51.0979 121.579C43.514 118.879 35.5587 115.309 28.1379 106.245C26.2924 103.998 23.3812 97.8171 23.3812 91.6973H4.97794V143.265H25.4335V136.298C25.4335 135.504 26.4252 132.242 29.8591 133.793C34.1317 135.735 46.674 140.728 59.7877 143.466C70.5399 145.715 77.4733 147.327 90.8408 147.327C112.651 147.327 124.368 143.774 132.468 141.461C140.099 139.276 149.528 135.353 157.188 129.245C161.336 125.942 170.433 117.476 170.433 102.108C170.433 87.3574 162.516 78.202 159.731 75.4169C155.937 71.6216 151.303 68.6802 146.474 66.4128C142.267 64.4328 135.628 62.0544 130.195 60.7249C119.652 58.1364 95.811 54.9429 84.41 53.7495C72.4543 52.5006 51.7147 50.7828 43.4317 48.2196C40.9205 47.4414 35.8008 45.0025 35.8008 39.0591C35.8008 34.8319 38.1421 31.2484 42.7694 28.3523C50.1146 23.7503 64.9512 20.8895 80.4164 20.8895C98.7003 20.8223 114.184 25.0025 124.034 29.4062C127.383 30.9021 131.303 33.0502 134.416 35.5916C137.929 38.4557 142.86 44.4075 144.644 52.7091H161.166V7.82117H142.718V13.0384C142.718 14.7226 140.978 16.911 137.689 15.1025C129.432 10.771 106.089 1.42566 77.4716 1.387M481.769 9.544L571.763 90.7611L570.838 36.0791C570.748 28.9087 569.427 25.9152 561.671 25.9152H544.75V9.55745H621.698V25.9152H605.193C597.283 25.9152 596.784 28.4448 596.688 36.0791L598.083 140.564H571.731L468.075 48.0515L468.097 113.708C468.188 120.844 468.522 124.206 475.876 124.206H494.356V140.557H418.787V124.208H436.452C443.051 124.208 442.789 117.916 442.789 113.336V36.701C442.789 31.7543 442.095 25.9269 431.734 25.9269H417.4V9.544H481.769ZM709.627 124.176C710.35 124.176 713.56 124.083 714.182 123.893C714.964 123.657 715.686 123.254 716.297 122.711C716.908 122.168 717.394 121.499 717.722 120.75C717.957 120.196 718.075 117.742 718.075 117.209L718.088 91.3578C718.088 90.7359 718.043 90.4669 716.987 89.0819C715.827 87.5692 669.849 35.4639 667.744 33.1696C665.131 30.3206 660.542 25.9168 653.57 25.9168H637.58V9.55241H727.818V25.8967H716.94C714.424 25.8967 712.752 28.2834 714.901 30.9358C714.901 30.9358 745.262 67.2532 745.549 67.633C745.832 68.0196 746.074 68.1121 746.46 67.7591C746.84 67.3977 777.582 31.2686 777.824 30.9828C779.287 29.2314 778.295 25.9152 775.143 25.9152H763.984V9.55241H837.94V25.9152H821.418C815.424 25.9152 812.985 27.0245 808.476 32.1224C806.413 34.4554 759.944 87.4969 758.68 88.934C758.018 89.6854 758.075 90.7325 758.075 91.3544V117.202C758.075 117.726 758.192 120.184 758.428 120.735C758.755 121.485 759.242 122.155 759.854 122.698C760.467 123.241 761.19 123.644 761.974 123.878C762.596 124.07 765.763 124.164 766.484 124.164H783.384V140.525H693.612V124.162L709.63 124.176H709.627Z" fill="black" fill-opacity="0.7"/>
</g>
<defs>
<clipPath id="clip0_990_902">
<rect width="837.054" height="150" fill="white" transform="translate(0.886719)"/>
</clipPath>
</defs>
</svg>
