<svg width="137" height="150" viewBox="0 0 137 150" fill="none" xmlns="http://www.w3.org/2000/svg">
<g clip-path="url(#clip0_925_1133)">
<path d="M55.199 146.115C56.3635 146.115 58.3661 145.737 59.9415 143.213C59.0406 141.211 58.3995 137.165 58.3072 135.693C57.8427 128.158 60.7455 121.07 63.9238 120.876C66.2515 120.735 68.1147 122.94 68.3293 126.51C68.9004 135.898 65.7759 139.818 64.2123 143.197C64.4766 144.508 66.697 146.739 68.7951 146.739C69.5697 146.739 70.5072 146.351 70.7421 146.037C70.5851 145.497 70.4281 144.796 70.4281 143.783C70.4281 138.343 73.9255 133.757 76.9559 133.757C79.3648 133.757 80.7622 136.943 80.7622 139.045C80.7622 141.529 78.6641 143.554 75.5578 145.497C76.1035 146.037 77.109 146.43 77.9667 146.43C82.3984 146.43 84.7183 141.066 86.4363 136.168C86.747 135.233 87.292 133.912 88.3774 133.912C90.2445 133.912 91.0231 146.192 94.1234 146.192C95.4469 146.192 96.5342 143.47 96.5342 141.377C96.5342 139.822 95.9912 139.666 95.9912 137.411C95.9912 134.927 97.3128 132.831 99.1021 132.831C100.189 132.831 100.581 133.912 100.581 135.232C100.581 140.206 97.004 149.456 91.7257 149.456C87.7565 149.456 88.0666 142.618 86.6692 142.618C85.1089 142.618 82.9329 149.535 75.2471 149.535C73.9975 149.535 72.6812 148.914 71.5965 147.668C69.732 148.914 68.1736 149.456 66.3863 149.456C63.5149 149.456 62.2712 146.503 61.106 146.503C59.7047 146.503 58.1555 149.535 53.4889 149.535C49.7598 149.535 49.137 144.565 47.8207 144.565C46.6522 144.565 44.8662 149.535 42.9251 149.535C39.6566 149.535 38.9631 140.909 36.0845 140.909C33.8307 140.909 26.7115 149.671 24.7795 149.47C24.001 149.389 23.6752 148.807 23.757 148.03C23.8656 146.956 24.7907 144.078 25.1675 142.716C25.7955 140.353 26.3726 137.762 26.6944 136.935C27.0144 136.104 27.8779 135.508 28.5695 135.573C28.9188 135.606 29.0241 136.257 29.1314 136.793C29.5233 138.714 30.0722 140.674 30.6898 140.674C31.7804 140.674 35.3858 133.757 37.482 133.757C40.0504 133.757 40.3586 144.639 43.8515 144.639C45.0199 144.639 45.8776 143.243 46.6516 141.529C46.7314 138.648 47.5066 134.539 49.8376 134.539C51.4719 134.539 52.2504 138.188 51.08 141.377C51.08 145.183 53.5648 146.114 55.199 146.114M117.357 136.791C116.394 140.785 113.475 146.662 109.119 146.662C108.111 146.662 106.322 146.271 106.322 145.26C106.322 144.171 113.164 144.021 113.164 138.811C113.164 136.87 111.378 134.147 108.735 134.147C105.239 134.147 101.828 137.958 101.828 143.242C101.828 147.98 104.771 149.535 107.721 149.535C112.854 149.535 115.959 145.334 117.59 141.84C118.37 144.171 118.831 149.535 120.779 149.535C121.554 149.535 122.101 149.145 123.036 147.05C125.359 141.84 127.614 135.858 130.726 135.858C131.889 135.858 131.192 137.958 133.989 137.958C135.307 137.958 136.235 136.87 136.235 135.621C136.235 133.832 134.606 132.439 132.121 132.439C124.819 132.439 123.268 143.396 122.101 143.396C120.156 143.396 120.78 134.615 119.378 134.615C118.133 134.615 117.524 136.098 117.357 136.791M65.8132 128.607C65.6777 126.436 65.1524 125.456 63.9866 125.534C62.4387 125.628 61.7229 130.499 62.0396 135.615C62.2411 138.955 62.7383 139.469 63.2008 139.437C64.0566 139.388 66.1108 133.42 65.8132 128.608M53.1768 124.044C53.0675 122.799 52.0908 121.948 50.7693 121.948C49.294 121.948 47.9057 123.497 48.0536 125.441C48.1478 126.721 48.9041 127.777 50.3865 127.777C52.0914 127.777 53.3338 125.834 53.1768 124.044ZM77.3458 139.896C77.3458 138.578 76.6432 137.49 75.7947 137.49C75.0881 137.49 73.4617 138.263 73.4617 140.752C73.4617 142.701 74.1552 143.626 74.4712 144.021C76.721 143.321 77.3458 141.451 77.3458 139.896M107.721 137.261C109.356 137.261 109.824 139.195 109.436 140.364C109.043 141.529 107.648 142.854 105.471 143.243C105.004 142.074 104.771 137.261 107.721 137.261ZM18.2543 131.743C18.0305 131.036 17.3855 129.448 17.2075 128.276C16.8196 125.68 18.1764 123.97 19.4227 123.578C20.8221 123.188 21.3677 123.888 21.9075 125.523C22.6075 128.008 22.686 131.27 22.4505 135.933C22.1443 142.307 18.9569 150.002 11.033 149.842C4.19304 149.692 1.16595 145.26 0.851919 138.5C0.704065 135.314 0.930426 132.13 2.25196 127.621C2.95067 125.21 3.57546 124.352 5.74748 123.888C7.45632 123.578 7.30257 125.362 6.91462 127.468C6.06216 132.13 5.66832 134.38 5.98235 139.666C6.28787 145.26 8.85767 147.439 11.6545 147.439C15.8494 147.518 17.7126 144.021 18.4931 138.966C19.1107 134.927 18.6468 132.984 18.2549 131.743M109.897 30.639C110.435 34.5552 116.368 39.8344 117.977 39.7107C119.051 39.6185 119.463 34.5964 119.463 30.639C119.463 28.3724 119.587 26.5972 118.391 26.183C116.492 30.0193 111.508 30.8039 109.897 30.639M110.227 28.9063C114.51 28.9063 118.431 25.4841 118.431 22.4735C118.431 21.07 117.77 19.9164 116.08 19.7109C116.368 20.0826 116.492 20.3712 116.492 21.0294C116.492 23.298 113.034 25.8146 109.28 25.8146C107.917 25.8146 107.505 26.7614 107.505 27.2574C107.505 28.413 108.62 28.9063 110.227 28.9063M109.32 24.2468C108.744 24.2468 107.917 24.2468 107.462 23.3405C107.091 22.5972 107.214 21.4011 106.514 20.8645C107.214 21.07 107.958 21.07 108.537 21.07C110.395 21.07 112.17 19.7921 113.53 19.7921C114.429 19.7921 114.717 20.3712 114.717 20.9463C114.717 22.7641 111.055 24.2468 109.32 24.2468M17.0944 56.5762C18.4944 56.5762 18.2052 47.9979 20.4741 47.9979C21.0105 47.9979 21.1741 48.5344 21.1741 49.1953C21.1741 51.1322 20.2261 53.9785 20.2261 55.5443C20.2261 56.3289 20.4316 56.5762 20.8032 56.5762C21.7936 56.5762 23.5247 47.1315 25.2159 47.1315C25.7524 47.1315 25.9984 47.6674 25.9984 48.2053C25.9984 50.184 23.4835 55.8741 23.4835 57.4825C23.4835 57.7285 23.5666 57.9353 23.772 57.9353C24.8037 57.9353 26.8652 53.4832 27.5233 51.2565C27.8949 50.1009 28.3902 49.4813 28.8436 49.4813C29.2557 49.4813 29.6273 49.936 29.6273 50.8848C29.6273 53.1115 27.5639 58.3482 25.7524 61.8554C24.351 64.5755 22.1652 68.4924 22.1652 70.6778C22.1652 71.7909 22.3687 72.9445 23.9794 74.3487C21.339 74.1838 20.2667 73.9364 19.2795 71.874C14.8687 80.6571 27.401 79.7914 23.1119 87.5846C22.3281 86.1843 16.1444 84.7402 16.1444 76.5747C16.1444 69.5236 22.3282 65.4006 22.3282 62.4712C22.3282 61.8966 22.1253 61.4007 21.5869 60.9459C20.2261 59.7903 20.1836 58.8455 19.1153 58.8455C18.3295 58.8455 17.3809 60.658 18.3694 62.2663C18.7011 62.8029 18.9896 63.1314 18.9896 63.6274C18.9896 64.781 17.1735 67.8727 15.8984 67.8727C14.6207 67.8727 13.6315 64.7011 13.6315 59.5849C13.6315 55.049 14.6613 50.4726 15.939 50.4726C16.3106 50.4726 16.4342 50.7206 16.4342 51.0497C16.4342 51.5863 16.27 52.6581 16.27 54.4706C16.27 56.41 16.7228 56.5762 17.0944 56.5762" fill="#0F0E9A"/>
<path d="M27.6059 68.6564C29.3396 68.6564 30.7802 67.3765 30.7802 64.5341V60.326C30.7802 58.719 30.9045 56.9052 31.978 55.6253C31.8544 56.1618 31.8544 56.7403 31.8544 57.2749C31.8544 60.8214 33.8328 63.2555 33.8328 66.6777C33.8328 67.9536 33.4612 68.6564 32.4739 68.6564C31.5234 68.6564 31.6064 67.7887 31.3997 67.7887C31.2348 67.7887 30.9875 68.3253 30.9875 68.9037C30.9875 69.7694 31.6064 71.1304 33.3369 71.1304C34.8233 71.1304 36.0179 69.7694 36.0179 68.2435C36.0179 64.5347 33.1321 60.4091 33.1321 56.4524C33.1321 54.7177 33.5848 53.5635 33.9564 52.6559C33.9564 60.8639 40.9239 66.8419 40.9239 70.2628C40.9239 71.0473 40.3482 71.6663 39.4827 71.6663C38.5321 71.6663 38.0793 70.923 38.0793 70.3446C38.0793 70.056 38.0368 69.9749 37.9145 69.9749C37.6685 69.9749 36.9253 70.7993 36.9253 71.8738C36.9253 73.2328 38.0368 74.8837 40.1002 74.8837C42.4483 74.8837 43.7273 72.9017 43.7273 71.1304C43.7273 66.8013 35.2747 60.2449 35.2747 53.2343C35.2747 52.0382 35.4801 50.1001 36.347 48.6154C30.9038 52.1194 29.2159 56.7815 29.2159 60.8646C29.2159 64.4111 29.0923 66.1804 27.2787 66.1804C26.3282 66.1804 26.0822 65.3167 25.7518 65.3167C25.5032 65.3167 25.3802 66.058 25.3802 66.2635C25.3802 67.7887 26.495 68.6564 27.6059 68.6564M99.0577 27.4627C100.873 27.4627 102.236 26.6382 102.236 26.1422C102.236 25.9793 101.988 25.8543 101.45 25.8543C100.914 25.8543 99.8414 25.8131 97.8192 25.4839C96.0855 25.1934 94.7646 24.5352 94.2694 24.5352C94.1052 24.5352 94.0214 24.617 94.0214 24.7406C94.0214 25.8131 96.0038 27.4627 99.0577 27.4627M90.0706 22.226C90.594 21.8746 92.9165 22.4308 95.922 20.9461C96.2487 20.7607 96.6173 20.6616 96.9929 20.6582C98.4388 20.6582 98.0652 22.3071 99.3887 22.3071C100.418 22.3071 101.741 21.4402 102.524 21.4402C103.754 21.4402 105.527 25.3177 105.527 27.1316C105.527 29.2359 102.36 30.5132 98.603 30.5132C93.1252 30.5132 89.8213 25.7319 89.8213 22.6382C89.8213 22.3902 89.9469 22.3071 90.0706 22.226M28.4727 84.2015C27.1132 84.5325 24.9268 86.6735 24.9268 90.0597C24.9268 94.0996 29.2565 100.328 36.3888 100.328C42.4064 100.328 43.8915 96.1634 43.8915 93.3563C43.8915 87.1289 40.059 82.7573 35.0706 82.7573C32.349 82.7573 29.9166 84.74 29.9166 87.6649C29.9166 90.3889 31.9774 94.4699 36.8841 94.4699C39.1935 94.4699 40.5523 92.8204 40.5523 90.9248C40.5523 89.0684 38.8625 86.5132 36.3888 86.5132C35.6456 86.5132 35.1111 87.0046 35.1111 87.7892C35.1111 88.7779 36.4719 89.7692 38.1618 89.7692C38.5739 89.7692 38.903 89.6881 39.0698 89.605C39.151 89.7286 39.1935 89.9354 39.1935 90.1003C39.1935 91.0491 38.2841 91.6275 36.8841 91.6275C34.7821 91.6275 32.7598 90.0597 32.7598 87.5818C32.7598 86.1003 34.0389 85.0279 35.8936 85.0279C39.5638 85.0279 41.7489 88.2845 41.7489 91.5444C41.7489 94.4693 40.1421 96.164 36.8435 96.164C30.2457 96.164 27.0301 90.224 28.4727 84.2015M72.3391 100.121C72.3403 100.558 72.5145 100.977 72.8235 101.286C73.1326 101.595 73.5514 101.769 73.9884 101.77C74.8965 101.77 75.6371 101.029 75.6371 100.121C75.6371 99.2139 74.8965 98.4699 73.9884 98.4699C73.5513 98.4716 73.1325 98.6463 72.8236 98.9557C72.5148 99.2651 72.3408 99.6842 72.3398 100.121M75.5357 108.363C77.5121 108.363 77.4107 108.198 78.0296 108.198C78.6472 108.198 78.6903 108.57 78.6903 108.818C78.6903 109.725 76.6675 110.841 73.0823 110.841C70.9783 110.841 69.7013 109.725 69.3297 108.488C67.2702 109.807 64.1365 111.003 61.0433 111.003C52.5927 111.003 50.4481 107.331 47.8096 106.138C45.7868 105.23 42.6956 107.006 38.3679 102.179C38.9449 102.304 39.7286 102.346 40.3482 102.346C44.1381 102.346 46.1584 100.491 46.1584 97.5198C46.1584 97.1481 46.1178 96.7411 46.0753 96.3714C47.2306 96.8242 49.8711 98.801 50.4887 102.303C50.5718 102.717 52.2616 103.087 53.3319 103.087C54.8183 103.087 56.7149 102.468 57.0021 100.038C61.9507 99.6255 65.2912 96.6986 65.9925 92.9839C67.7635 93.5624 69.7824 95.1714 70.2777 95.9978C70.9783 95.7498 71.8033 95.6262 72.7513 95.6262C74.0696 95.6262 75.556 95.8742 77.3276 96.4114C77.4107 95.8742 77.4938 95.2139 78.3181 95.2139C79.5546 95.2139 79.2242 96.575 79.6364 97.3549C79.8437 97.7672 80.8768 98.0151 80.8768 98.8403C80.8768 99.6255 80.2134 99.914 79.8032 99.914C79.6364 99.914 79.4316 99.8735 79.306 99.8329C78.483 100.121 78.4424 106.057 74.9776 106.057C72.4222 106.057 70.0729 103.955 69.0412 101.318C68.7507 100.534 68.1351 100.038 67.5561 100.038C66.8986 100.038 66.527 100.162 65.7445 101.029C63.5189 103.459 59.8061 105.562 55.2312 105.562C53.8272 105.562 52.7163 105.437 52.4258 105.437C52.2616 105.437 52.2616 105.478 52.2616 105.519C52.2616 105.809 53.663 106.924 56.7149 106.924C63.9703 106.924 65.7445 102.84 66.8986 102.84C67.0628 102.84 67.5567 102.84 67.8446 103.5C69.5345 107.455 73.2269 108.363 75.5357 108.363M100.543 82.0978C99.6779 82.0978 94.8876 88.49 91.8036 88.49C91.0604 88.49 90.4428 87.0864 90.4428 86.0192C90.4428 85.4408 90.8112 85.0285 92.1347 84.74C99.2232 83.129 97.655 77.8092 103.712 77.8092C107.051 77.8092 110.765 80.0785 110.765 85.1928C110.765 90.6368 103.019 97.3968 101.863 97.3968C100.913 97.3968 99.8833 96.0377 99.8833 95.1302C99.8833 94.8436 100.008 94.4693 100.832 94.1408C104.784 92.5704 107.051 88.9447 107.051 87.0864C107.051 86.6742 106.846 86.2672 106.308 86.2672C105.609 86.2672 102.606 93.1089 99.2638 93.1089C96.953 93.1089 94.6011 91.0085 94.6011 90.0172C94.6011 88.3683 101.285 85.3164 101.285 83.0053C101.285 82.1383 100.874 82.0978 100.543 82.0978M104.99 79.5419C104.412 79.5419 103.795 79.9967 103.795 81.1123C103.795 82.3451 104.744 83.129 105.28 83.377C105.568 83.5419 106.023 83.7081 106.472 83.7081C107.67 83.7081 108.619 83.377 108.619 82.3863C108.619 81.1117 106.762 79.5419 104.99 79.5419M27.9775 31.7911C27.9788 32.2287 28.1533 32.648 28.4626 32.9574C28.772 33.2668 29.1912 33.4413 29.6287 33.4426C30.0656 33.4406 30.4839 33.2658 30.7924 32.9563C31.1009 32.6469 31.2745 32.2281 31.2754 31.7911C31.274 31.3545 31.1002 30.9362 30.7917 30.6273C30.4832 30.3185 30.0652 30.1441 29.6287 30.1422C29.1916 30.1432 28.7725 30.3172 28.4632 30.6261C28.1538 30.935 27.9792 31.3538 27.9775 31.7911M25.8349 28.0804C25.8363 28.517 26.0102 28.9354 26.3188 29.2443C26.6274 29.5532 27.0456 29.7276 27.4822 29.7293C28.3896 29.7293 29.1328 28.986 29.1328 28.0804C29.1328 27.1748 28.3896 26.4308 27.4822 26.4308C27.0456 26.4325 26.6274 26.6068 26.3188 26.9157C26.0102 27.2246 25.8363 27.643 25.8349 28.0797M24.3498 39.3781C23.3998 39.6261 21.4234 40.7817 21.4234 42.8415C21.4234 44.3269 22.5749 45.275 24.0207 45.275C24.7626 45.275 25.2984 45.1101 25.6275 44.8628C24.4741 43.7497 24.0619 42.5124 24.0619 41.277C24.0619 40.41 24.1862 39.8735 24.3498 39.3781ZM14.2505 39.9572C14.2093 40.164 14.2093 40.3694 14.2093 40.5749C14.2093 42.5124 15.239 43.5848 16.5998 43.5848C17.6283 43.5848 18.8262 42.9652 19.8965 41.6048C19.4058 41.6875 18.909 41.7282 18.4114 41.7265C16.8883 41.7265 15.239 41.3182 14.2505 39.9572M12.8066 43.6254C12.8066 46.7597 13.7553 48.245 15.4445 48.245C16.7647 48.245 18.5376 47.2962 20.6377 45.4818C19.0309 45.8541 17.7945 46.0995 16.6816 46.0995C15.1965 46.0995 14.0451 45.523 12.8066 43.6261M23.4849 27.1316C23.6903 26.4713 23.8545 25.6488 23.8545 24.7406C23.8545 22.7619 22.9471 19.75 20.1444 19.75C18.5376 19.75 17.3803 21.0279 17.3803 22.5551C17.3803 25.8137 20.6384 27.1316 23.4849 27.1316M19.9783 37.5237C18.6188 37.5237 17.1343 35.8336 17.1343 34.3077C17.1343 33.4832 17.7519 32.4513 18.2066 32.4513C18.3715 32.4513 18.4546 32.5756 18.4945 32.8655C18.7431 34.8848 20.0607 36.0404 21.2998 36.6155C21.4241 36.6986 21.5046 36.7398 21.5046 36.8229C21.5046 37.1108 20.7208 37.5231 19.9776 37.5231M23.7734 32.4919C24.058 32.8806 24.8457 33.3595 24.8457 33.6481C24.8457 34.2246 24.5146 34.9679 23.8545 34.9679C22.4107 34.9679 21.2573 32.7824 21.2573 31.5438C21.2573 30.7612 21.7119 30.68 22.3276 30.68C22.6181 30.68 22.7397 30.7206 22.9471 30.8449C23.3187 31.0497 23.3187 31.8748 23.7734 32.4919M14.0856 37.6068C14.0078 37.7344 13.9613 37.8947 13.9613 38.0616C13.9613 38.4313 14.3735 38.8435 14.7438 38.8435C15.0748 38.8435 15.2803 38.7624 15.4445 38.7624C16.4337 38.7624 17.5465 39.4612 19.1552 39.4612C20.1019 39.4612 21.216 39.1733 22.6181 38.4738C25.585 36.9872 26.7423 33.319 26.7423 32.6993C26.7423 31.9154 26.1123 32.0168 25.585 31.2958C25.0603 30.5786 25.2618 29.9406 24.9268 29.6056C24.7345 29.4132 24.145 29.4001 23.3998 29.3177C23.0987 29.2882 22.7963 29.2745 22.4937 29.2765C21.133 29.2765 19.5209 29.4427 17.7114 30.5969C14.1341 32.8786 14.6607 36.658 14.0856 37.6068M27.772 35.9579C26.8646 37.0277 25.916 38.8435 25.916 40.6986C25.916 42.9246 27.2787 44.7797 29.3808 44.7797C31.3997 44.7797 32.3477 43.0489 32.3477 41.277C32.3477 38.5144 29.8335 36.5749 27.772 35.9573M18.9498 28.0398C18.9498 28.0398 17.7519 28.9454 16.2688 28.9454C14.4978 28.9454 13.0945 27.6269 13.0945 25.7725C13.0945 24.4926 13.7553 23.1748 15.2796 22.5139C15.239 22.7626 15.239 22.9674 15.239 23.2154C15.239 25.5651 16.5573 27.339 18.9498 28.0398ZM91.6381 41.7278C91.6381 42.6779 92.4232 43.4618 93.3607 43.4618C93.8198 43.4594 94.2594 43.276 94.5842 42.9513C94.9089 42.6267 95.0925 42.187 95.095 41.7278C95.095 40.781 94.3113 39.9984 93.3613 39.9984C92.4238 39.9984 91.6381 40.781 91.6381 41.7272M91.7618 46.9233C91.7618 47.4367 91.9657 47.9291 92.3287 48.2921C92.6916 48.6552 93.1839 48.8591 93.6973 48.8591C94.2106 48.8591 94.7029 48.6552 95.0659 48.2921C95.4289 47.9291 95.6328 47.4367 95.6328 46.9233C95.6235 46.416 95.4155 45.9327 95.0535 45.5773C94.6915 45.2218 94.2045 45.0227 93.6973 45.0227C93.19 45.0227 92.703 45.2218 92.3411 45.5773C91.9791 45.9327 91.7711 46.416 91.7618 46.9233M85.8214 50.4292C85.823 51.1839 86.1235 51.9071 86.6571 52.4406C87.1908 52.9741 87.9141 53.2744 88.6686 53.2756C90.2348 53.2756 91.5158 51.9957 91.5158 50.4292C91.5158 48.8627 90.2348 47.5835 88.6686 47.5835C87.9141 47.5847 87.1908 47.8849 86.6571 48.4184C86.1235 48.9519 85.823 49.6752 85.8214 50.4299M87.347 44.6161C87.3483 45.0534 87.5226 45.4724 87.832 45.7814C88.1413 46.0904 88.5604 46.2643 88.9977 46.265C89.4346 46.264 89.8535 46.0899 90.1625 45.7809C90.4716 45.472 90.6457 45.0531 90.647 44.6161C90.6457 44.1791 90.4717 43.7603 90.1628 43.4512C89.8539 43.1421 89.4353 42.9679 88.9983 42.9665C88.5611 42.9675 88.1421 43.1415 87.8328 43.4504C87.5234 43.7594 87.3488 44.1782 87.347 44.6154M81.9484 47.9146C81.9494 48.3503 82.1226 48.768 82.4302 49.0766C82.7377 49.3853 83.1548 49.5598 83.5905 49.5622C84.4999 49.5622 85.2431 48.8228 85.2431 47.9146C85.2431 47.0064 84.4999 46.2657 83.5898 46.2657C83.1542 46.2686 82.7373 46.4435 82.4299 46.7523C82.1224 47.0611 81.9494 47.4788 81.9484 47.9146M86.1917 38.2677C86.1917 39.7099 87.3876 40.9047 88.8315 40.9047C90.2773 40.9047 91.4732 39.7099 91.4732 38.2677C91.4732 36.8216 90.2773 35.6275 88.8315 35.6275C87.3876 35.6275 86.1917 36.8216 86.1917 38.2677M89.2862 33.194C89.2862 33.3998 89.3267 33.6036 89.4055 33.7937C89.4843 33.9838 89.5998 34.1565 89.7454 34.3019C89.891 34.4473 90.0638 34.5626 90.254 34.6412C90.4441 34.7198 90.6479 34.7601 90.8537 34.7598C91.0633 34.7659 91.2719 34.7298 91.4673 34.6538C91.6627 34.5778 91.8409 34.4633 91.9913 34.3172C92.1416 34.1711 92.2612 33.9962 92.3428 33.8031C92.4244 33.6099 92.4665 33.4024 92.4665 33.1927C92.4665 32.983 92.4244 32.7754 92.3428 32.5823C92.2612 32.3891 92.1416 32.2143 91.9913 32.0682C91.8409 31.9221 91.6627 31.8076 91.4673 31.7316C91.2719 31.6555 91.0633 31.6195 90.8537 31.6255C90.6478 31.6255 90.4439 31.6661 90.2537 31.745C90.0635 31.8238 89.8906 31.9393 89.7451 32.085C89.5995 32.2306 89.484 32.4035 89.4053 32.5938C89.3266 32.7841 89.2861 32.9881 89.2862 33.194M81.8267 37.1527C81.8257 37.5673 81.9892 37.9654 82.2814 38.2595C82.5736 38.5535 82.9705 38.7196 83.3851 38.7212C83.8006 38.7212 84.1992 38.5561 84.493 38.2622C84.7869 37.9683 84.9519 37.5697 84.9519 37.154C84.9519 36.7384 84.7869 36.3398 84.493 36.0459C84.1992 35.752 83.8006 35.5869 83.3851 35.5869C82.9709 35.5883 82.5743 35.7539 82.2821 36.0475C81.99 36.341 81.8262 36.7385 81.8267 37.1527M81.6193 42.5117C81.617 42.8421 81.6802 43.1696 81.8052 43.4754C81.9302 43.7812 82.1147 44.0592 82.3478 44.2932C82.581 44.5272 82.8582 44.7127 83.1635 44.8389C83.4687 44.9651 83.796 45.0294 84.1263 45.0283C84.4576 45.0307 84.786 44.9672 85.0925 44.8416C85.3991 44.716 85.6777 44.5308 85.9121 44.2967C86.1465 44.0626 86.3321 43.7843 86.4582 43.4779C86.5842 43.1714 86.6482 42.8431 86.6464 42.5117C86.6464 41.1115 85.5296 39.9991 84.1263 39.9991C83.7963 39.9978 83.4693 40.0619 83.1642 40.1878C82.8591 40.3137 82.582 40.4988 82.3488 40.7324C82.1157 40.9661 81.9312 41.2436 81.806 41.549C81.6808 41.8545 81.6173 42.1817 81.6193 42.5117M76.4221 45.152C76.4221 46.4319 77.4931 47.5004 78.7721 47.5004C80.0498 47.5004 81.1241 46.4319 81.1241 45.152C81.1241 43.8741 80.0498 42.8016 78.7721 42.8016C77.4931 42.8016 76.4221 43.8747 76.4221 45.152ZM77.8235 39.3382C77.825 39.7749 77.999 40.1933 78.3076 40.5022C78.6161 40.8112 79.0342 40.9857 79.4708 40.9878C80.3802 40.9878 81.1241 40.2445 81.1241 39.3389C81.1241 38.4333 80.3809 37.6893 79.4708 37.6893C79.0343 37.6913 78.6163 37.8658 78.3078 38.1746C77.9993 38.4834 77.8252 38.9016 77.8235 39.3382M92.2982 52.0382C92.2982 51.2138 93.0414 50.5123 93.8566 50.5123C94.766 50.5123 95.4666 51.2131 95.4666 52.0382C95.4666 52.987 94.7666 53.6466 93.8566 53.6466C93.0414 53.6466 92.2982 52.987 92.2982 52.0382ZM93.362 99.4606C93.5687 99.4606 93.8167 99.5823 93.8167 100.328C93.8167 101.234 93.4045 102.428 91.9273 103.377C90.8956 104.078 89.4923 104.657 87.4288 104.693C87.7579 103.706 88.0058 102.674 88.0058 101.689C88.0058 101.357 87.9666 101.11 87.9247 100.74H88.4625C91.7205 100.74 93.1252 99.4606 93.362 99.4606M93.6924 95.3775C94.0273 95.0948 94.1045 94.6361 94.1045 94.1814V93.2326C94.1045 92.0365 92.2989 91.3376 89.8213 91.3376C86.8093 91.3376 85.2012 92.6947 85.2012 93.2732V95.1727C85.2012 95.9566 87.0167 96.7405 89.2443 96.7405C91.0192 96.7405 92.6293 96.2877 93.693 95.3775M95.8369 95.8323C94.7646 96.6594 92.2583 98.5098 88.0889 98.5098C85.8613 98.5098 84.8701 97.8097 84.5391 97.8097C84.1269 97.8097 83.6723 98.2219 83.2195 98.7598C82.2395 99.9153 80.9599 102.06 80.9599 104.409C80.9599 106.058 82.2395 107.702 84.6222 107.702C92.3394 107.702 98.1077 102.879 98.1077 98.9652C98.1077 96.7405 96.7895 95.8323 95.8376 95.8323M97.2821 61.1525C97.2821 62.1824 97.6131 63.3785 98.6448 63.3785C99.5097 63.3785 100.253 62.0607 100.253 60.6166C100.253 58.967 99.9651 57.6871 99.9651 57.0269C99.9651 56.7403 100.089 56.6166 100.253 56.6166C100.872 56.6572 101.451 58.3473 102.111 58.3473C102.855 58.3473 103.96 56.9863 104.413 56.9863C104.537 56.9863 104.577 57.1512 104.577 57.1918C104.577 57.8114 103.629 59.1744 103.629 59.7083C103.629 60.1611 106.021 60.2449 106.021 60.6571C106.021 61.2761 103.514 61.2761 102.318 61.8127C101.163 62.3061 100.46 62.9257 100.46 63.7502C100.46 64.5746 101.285 64.7382 102.443 64.7382C105.197 64.7382 107.135 63.2548 107.752 63.2548C107.876 63.2548 107.957 63.3379 107.957 63.4623C107.957 63.8745 106.556 65.2336 106.556 65.8532C106.556 66.5534 109.114 67.3765 109.074 67.7887C109.033 67.9131 108.866 67.9536 108.579 67.9536C108.123 67.9536 107.423 67.8313 106.885 67.8313C106.556 67.8313 106.267 67.8718 106.142 68.0367C105.857 68.3678 106.225 70.5513 105.652 70.5513C105.114 70.5513 103.711 65.6883 100.543 65.6883C100.089 65.6883 99.7597 66.058 99.7597 66.6777C99.7597 68.3253 101.368 70.2222 102.895 71.1304C103.587 71.5832 104.744 72.038 104.744 72.286C104.744 72.7781 102.112 72.3266 102.112 73.1497C102.112 73.893 102.442 75.008 102.442 75.6663C102.442 75.8731 102.399 76.1191 102.152 76.1191C101.658 76.1191 100.46 73.8518 99.882 73.8518C99.388 73.8518 98.3158 75.2115 97.8591 75.2115C97.7368 75.2115 97.6557 75.0872 97.6557 74.9675C97.6557 74.0167 99.1807 71.8738 99.1807 69.7694C99.1807 68.7801 99.057 66.6351 97.8591 66.6351C96.8699 66.6351 95.7551 68.201 95.2599 69.7694C94.9714 70.6757 95.1781 74.1809 94.518 74.1809C93.8991 74.1809 94.0633 71.8312 93.237 71.8312C92.6286 71.8312 91.309 72.9443 90.8537 72.9443C90.7726 72.9443 90.6895 72.9017 90.6895 72.8199C90.6895 72.3266 91.8854 70.7182 91.8854 70.3871C91.8854 69.7694 89.1625 69.6883 89.1625 69.1923C89.1625 68.9044 90.2348 68.697 91.2253 68.5321C93.3221 68.1604 96.4172 66.6345 96.4172 64.4935C96.4172 62.1012 94.1039 61.0694 92.588 60.078C91.803 59.5847 90.9374 59.1738 90.9374 58.8427C90.9374 58.5116 91.9279 58.5122 92.3407 58.5122C92.9577 58.5122 93.57 58.471 93.57 57.9776C93.57 57.6046 93.485 56.8646 93.485 56.2875C93.485 55.8733 93.5275 55.5422 93.6943 55.5422C94.3113 55.5422 95.1781 57.5634 95.5903 57.5634C96.251 57.5634 97.1585 55.9145 97.7793 55.9145C97.9828 55.9145 98.0659 56.0395 98.0659 56.4098C98.0659 57.9344 97.2821 59.6658 97.2821 61.1525M77.6161 49.0701C78.0715 52.5748 82.7747 50.8015 82.7747 55.0488C82.7747 55.6678 82.6105 56.576 82.6105 57.356C82.6105 58.2655 82.6916 59.0501 83.3851 59.0501C84.0851 59.0501 84.2519 58.5547 84.2519 57.8945C84.2519 57.2323 84.0857 56.4092 84.0857 55.9564C84.0857 54.5123 85.1174 54.1831 85.7363 54.1831C87.3065 54.1831 88.5024 55.7921 90.8537 55.7921C90.3179 58.4304 84.8695 57.7277 84.8695 60.6166C84.8695 62.0607 86.3153 62.3879 87.264 62.3879C88.1308 62.3879 88.4213 62.2635 88.4213 61.5241C88.4213 61.1099 88.3362 60.6571 88.3362 60.3686C88.3357 60.3248 88.3439 60.2814 88.3605 60.2409C88.377 60.2004 88.4015 60.1637 88.4325 60.1328C88.4635 60.1019 88.5003 60.0776 88.5409 60.0612C88.5814 60.0448 88.6248 60.0368 88.6686 60.0375C89.5766 60.0375 94.0228 63.4197 94.0228 64.451C94.0228 65.3978 89.3267 66.3466 87.9659 66.3466C87.5538 66.3466 87.4707 66.0587 87.4707 65.8938C87.4707 65.6052 88.1714 64.7382 88.1714 64.2442C88.1714 63.8745 87.5538 63.6265 85.9012 63.6265C85.1174 63.6265 84.5404 63.7076 84.5404 64.3293C84.5404 65.4403 86.3559 66.8013 86.3559 67.8313C86.3559 68.6557 85.8606 69.1517 84.5404 69.1517C83.4256 69.1517 81.743 68.2847 81.743 66.8419C81.743 65.6883 82.9317 64.5347 82.9317 63.8339C82.9317 63.6265 82.7747 63.2954 82.2794 63.2954C80.7525 63.2954 80.3396 67.3359 74.9358 67.7887C75.8033 67.0068 76.5445 66.1411 76.5445 64.3698C76.5445 63.5028 76.3391 62.7994 76.3391 61.8533C76.3391 60.6166 76.9161 59.9969 77.7404 59.9969C79.2661 59.9969 80.0073 62.1399 80.9998 62.1399C81.5382 62.1399 82.1146 61.6478 82.1146 60.9045C82.1146 57.7702 76.0911 58.2237 76.0911 53.8115C76.0911 52.6153 76.502 51.132 77.6168 49.0701" fill="#0F0E9A"/>
<path d="M85.4486 75.8719C85.4486 76.4483 85.8607 76.9037 86.4391 76.9037C87.0998 76.9037 87.5133 76.3247 87.5133 75.6644C87.5133 74.8007 86.7282 73.6033 85.9844 73.6033C85.6533 73.6033 85.7796 74.0986 85.6946 74.6345C85.6533 75.0454 85.4486 75.5408 85.4486 75.8712M83.304 70.3879C87.635 71.2123 89.9869 74.4703 89.9869 77.5214C89.9869 79.6251 88.6674 81.5593 86.356 81.5593C84.252 81.5593 82.7342 80.1192 82.7342 77.808C82.7342 76.0767 84.0858 74.2628 84.0858 72.4896C84.0858 71.7894 83.8804 71.088 83.304 70.3872M77.8242 77.3991C78.2344 77.808 78.3607 78.2222 78.3607 78.6345C78.3607 79.2535 78.0715 79.9137 78.0715 80.6145C78.0715 81.6025 78.8134 82.4695 79.8837 82.4695C81.041 82.4695 81.8268 81.56 81.8268 80.4928C81.8268 78.9243 80.2128 77.3991 77.8242 77.3991ZM91.4733 74.7601C91.7618 75.2097 91.8855 75.6644 91.8855 76.0767C91.8855 77.2329 91.1017 78.3034 91.1017 79.5015C91.1017 80.8625 92.1334 81.9735 93.6938 81.9735C95.3856 81.9735 96.5409 80.6145 96.5409 79.0061C96.5409 76.8206 94.5613 74.9656 91.4733 74.7601M78.8134 72.5714C80.712 72.8187 81.1667 73.4789 81.1667 74.0175C81.1667 74.9231 80.3404 75.2097 79.5547 75.2097C78.9776 75.2097 78.3182 75.088 77.6168 75.088C76.7094 75.088 75.8033 75.2928 75.0601 76.1604C75.5966 76.2435 76.3804 76.6132 76.3804 77.4396C76.3804 79.8306 69.7413 77.8506 69.7413 83.9961C69.7413 87.2527 73.1223 90.8012 78.2344 90.8012C80.8762 90.8012 82.568 89.9342 82.568 88.9429C82.568 88.1609 81.1667 88.6955 81.1667 88.0353C81.1667 87.7467 81.66 87.2089 81.66 86.7554C81.66 86.5539 81.4957 86.1822 81.1667 86.1822C80.4215 86.1822 79.0202 87.3751 76.173 87.3751C73.9473 87.3751 71.7615 86.0991 71.7615 84.3665C71.7615 83.9968 71.9264 83.788 72.1737 83.788C72.421 83.788 72.7507 83.9542 73.0392 83.9542C73.2891 83.9542 73.3297 83.788 73.3297 83.3346C73.3297 82.8811 73.3297 81.6019 74.1115 81.6019C74.8953 81.6019 76.3804 84.4901 82.0741 84.4901C83.9641 84.4901 87.635 84.1185 88.9984 82.8818C88.9559 87.4176 85.408 93.3956 77.9884 93.3956C70.279 93.3956 66.1542 87.2089 66.1542 81.5194C66.1542 75.2097 71.3068 69.481 78.36 69.481C80.1722 69.481 81.7012 70.0967 81.7012 70.8812C81.7012 71.955 79.0201 71.2954 78.8134 72.5714M52.1381 25.4827C54.8596 25.4827 56.0942 27.8331 56.0942 30.472C56.0942 31.6256 55.767 33.3178 55.2306 33.3178C54.6941 33.3178 54.7765 32.369 54.6948 31.502C54.6117 30.3903 54.4069 30.1429 54.0347 30.1429C53.3327 30.1429 52.8813 31.7905 52.8813 33.3178C52.8813 34.2646 53.0461 35.3383 53.7874 35.3383C54.1995 35.3383 54.5711 35.1316 54.8171 34.8836C54.6522 36.7812 53.2489 38.432 51.2712 38.432C47.6435 38.432 46.2827 34.1828 45.8706 31.7087C43.6855 34.0186 41.6665 35.71 38.0375 35.71C34.6578 35.71 33.1309 33.2366 33.1309 30.8862C33.1309 30.1835 33.3782 28.3697 34.2457 28.3697C35.2754 28.3697 34.37 31.7493 36.3882 31.7493C36.8835 31.7493 37.7896 31.3371 38.2855 29.978C38.5734 29.1516 38.7402 28.2879 38.7402 27.5445C38.7402 26.4296 38.4916 25.7307 37.6692 25.7307C36.9666 25.7307 36.0997 26.2653 35.8112 26.5539C36.8024 23.5839 39.1929 22.0586 41.8294 22.0586C45.0888 22.0586 46.8192 24.9468 46.8192 28.1622C46.8192 28.615 46.7767 29.111 46.6949 29.5638C48.0969 27.254 50.036 25.4827 52.1381 25.4827M48.9618 30.3477C48.9618 29.6476 48.7976 29.4827 48.6327 29.4827C48.2206 29.4827 47.7678 29.978 47.1077 31.0911C47.1908 32.5764 47.4388 33.236 47.8509 33.236C48.3023 33.236 48.9618 31.7899 48.9618 30.3477M43.3139 32.0379C43.7666 32.0379 44.3456 31.5425 45.4179 30.3477C45.5009 29.8112 45.5009 29.3158 45.5009 28.6988C45.5009 27.8743 45.1699 26.9661 44.6766 26.9661C43.4375 26.9661 42.8199 30.2666 42.8199 31.1342C42.8199 31.6256 43.0659 32.0379 43.3139 32.0379M50.036 35.71C51.0658 35.71 52.2192 31.7493 52.2192 29.2753C52.2192 28.7387 52.1381 28.1629 51.8901 28.1629C51.0233 28.1629 49.5807 32.2453 49.5807 34.4714C49.5807 35.3383 49.7881 35.71 50.036 35.71ZM39.9355 33.4414C41.3368 33.4414 42.9416 25.8544 42.9416 24.5752C42.9416 24.2441 42.8193 23.9961 42.5314 23.9961C41.2537 23.9961 39.4808 31.2134 39.4808 32.8218C39.4808 33.1123 39.5639 33.4414 39.9355 33.4414Z" fill="#0F0E9A"/>
<path d="M44.427 36.5726C42.654 36.5726 42.5729 38.7195 42.5729 43.0466C41.2546 40.2022 39.0689 37.151 36.5122 37.151C34.7817 37.151 34.1216 38.3072 34.1216 40.3246C34.1216 40.7388 34.1622 41.3584 34.2459 41.7262C34.4507 41.0273 35.1128 40.7388 35.9351 40.7388C37.7081 40.7388 39.8533 42.0978 41.254 43.9542C39.6459 43.6663 38.0784 43.3777 36.7595 43.3777C35.9351 43.3777 35.1919 43.4608 34.5744 43.7494C33.3784 44.2833 31.7703 46.0566 31.7703 48.738C31.7703 49.1503 31.8129 49.6031 31.896 50.099C33.3379 46.8817 37.1723 45.4389 39.6459 45.4389C40.1412 45.4389 40.5114 45.4801 40.7993 45.5207C39.5223 46.6742 39.2337 48.6975 39.1507 50.0565C39.1101 50.7167 38.8621 50.7593 38.4094 50.7593C38.4094 52.1183 39.4817 54.1409 39.4817 55.1708C39.4817 55.5405 39.2743 55.8716 39.0695 55.9547C39.0695 57.7692 40.883 59.089 40.883 60.2432C40.883 60.5311 40.7993 60.7798 40.6757 60.9034C40.8 61.6468 42.7947 62.8946 43.0531 63.5195C43.3698 64.2798 43.7263 64.4094 43.933 64.4094C44.6337 64.4094 45.7452 63.5823 45.7452 62.8409C45.7452 62.5936 45.5398 62.3044 45.3769 62.1807C44.5932 61.6042 44.1797 60.3669 43.85 59.5424C43.5601 59.5424 43.1866 59.4201 43.057 58.9359C42.8313 58.0813 42.8202 56.4913 42.4892 55.5405C41.9527 55.4188 41.7054 55.2114 41.7054 54.101C41.7054 53.5624 42.0364 51.4601 42.0364 50.7167C41.7885 50.7167 41.4594 50.5518 41.4594 50.0559C41.4594 48.738 42.7796 47.7068 43.1493 46.016C45.5012 47.7467 46.0763 49.52 46.0763 51.0884C46.0763 51.9109 45.952 52.6968 45.7878 53.4401C47.5202 52.5731 50.1174 51.2952 50.1174 48.6975C50.1174 47.1702 49.4174 45.4801 44.758 44.8199C46.1999 44.2833 48.0161 43.9967 49.5404 43.9967C52.1789 43.9967 53.7039 44.8199 54.033 46.6742C54.5694 45.8517 54.9836 44.901 54.9836 44.0373C54.9836 42.0147 53.2898 40.6962 51.1472 40.6962C48.633 40.6962 46.4067 42.0147 44.0148 43.625C45.0891 41.399 45.8283 40.0785 47.1486 40.0785C47.3553 40.0785 47.5627 40.1211 47.7675 40.1616C47.2722 38.3478 45.4181 36.5726 44.427 36.5726M113.893 66.303C115.957 66.303 117.605 68.9845 117.605 72.1188C117.605 75.4559 116.038 79.0861 113.242 81.5582C113.2 75.9944 106.389 77.7676 106.389 73.7258C106.389 71.9944 107.628 70.8389 109.114 70.8389C110.436 70.8389 111.465 71.2105 112.209 71.9539C111.465 71.2537 111.094 70.2618 111.094 69.3156C111.094 67.7452 112.085 66.303 113.893 66.303M83.3036 24.1193C82.9719 23.5827 81.7427 23.2968 81.1656 23.2968C79.3482 23.2968 78.1117 24.5747 77.8638 25.7303C77.6995 25.3161 77.5739 24.822 77.5739 24.3267C77.5739 22.5129 78.8124 20.2862 81.8264 20.2862C84.4583 20.2862 85.4881 21.6878 85.8617 21.6878C86.2725 21.6878 86.686 21.2736 87.017 21.2736C87.4704 21.2736 87.4704 21.9763 87.4704 22.4723C87.4704 24.1193 86.7291 26.9656 84.8712 27.9969C84.5401 27.2948 83.88 26.5122 82.8149 26.0188C82.6914 25.9696 82.5858 25.884 82.5122 25.7733C82.4386 25.6626 82.4004 25.5321 82.4028 25.3992C82.4028 24.9464 82.8149 24.3673 83.303 24.1193M77.08 27.1299C78.1529 28.1618 79.0989 28.6152 80.2543 28.6152C80.7109 28.6152 81.2474 28.4929 81.5372 28.4929C81.9075 28.4929 82.1548 28.6551 82.1548 28.9444C82.1548 29.3985 81.7427 30.1405 81.2474 30.554C81.7427 30.7595 82.2791 30.8432 82.8575 30.8432C85.1996 30.8432 87.8819 29.3559 87.8819 25.6472C88.3778 26.3054 88.6683 27.6677 88.6683 28.2854C88.6683 32.7807 85.3664 34.5114 82.3216 34.5114C80.3393 34.5114 79.3482 33.8512 79.0989 33.8512C78.3184 33.8512 78.3597 35.4197 77.8232 35.3784C76.8733 35.2142 76.0097 33.1099 76.0097 30.8832C76.0097 29.5634 76.3388 28.1611 77.08 27.1299M41.7885 0.904749C41.7885 0.656756 40.552 0.409417 38.8621 0.409417C36.1831 0.409417 36.5527 2.63743 34.4932 2.63743C32.3487 2.63743 32.8832 0.325662 30.1623 0.325662C28.5123 0.325662 26.9893 0.616187 26.9893 0.986541C26.9893 1.48187 28.9264 1.27641 28.9264 2.63743C28.9264 4.07959 24.7629 4.49378 24.7629 5.35947C24.7629 5.64607 25.0901 5.76974 25.5022 5.76974C26.4103 5.76974 27.8529 5.35881 28.8846 5.35881C29.4629 5.35881 29.9987 5.48118 29.9987 6.01773C29.9987 7.04896 27.7711 8.90597 27.7711 9.73043C27.7711 9.97843 27.9765 10.0615 28.1832 10.0615C29.0076 10.0615 30.4096 7.95718 31.7291 7.95718C33.9142 7.95718 32.473 12.6167 33.6669 12.6167C34.9054 12.6167 34.3696 8.03832 36.1406 8.03832C37.5864 8.03832 38.6567 11.2132 39.6459 11.2132C39.8939 11.2132 40.1006 11.0084 40.1006 10.7178C40.1006 9.8541 38.8621 8.07889 38.8621 6.9253C38.8621 6.2245 39.3574 5.89341 40.0175 5.89341C40.9642 5.89341 42.2438 6.47053 42.9419 6.47053C43.1905 6.47053 43.4378 6.38939 43.4378 6.10083C43.4378 5.11148 39.7696 4.03902 39.7696 2.7611C39.7696 1.48187 41.7885 1.48187 41.7885 0.904749M51.4782 5.11148C51.4782 5.85284 54.0755 7.46185 55.2721 7.46185C55.9708 7.46185 56.1775 6.51306 56.1775 5.52174C56.1775 4.28636 55.6437 4.24579 54.5694 4.24579C53.2106 4.24579 51.4782 4.61745 51.4782 5.11148M55.7673 13.275C55.7673 10.8016 49.0766 6.3076 49.0046 4.36946C48.9974 4.19279 49.0936 4.01612 49.2427 3.85777C50.3896 2.65052 55.1478 1.76847 55.1478 0.738548C55.1478 0.203955 54.1573 0.203955 53.6614 0.203955C49.8289 0.203955 44.2216 1.60554 44.2216 2.96656C44.2216 4.37011 49.2506 7.79229 49.2506 9.48244C49.2506 9.9372 48.9621 10.1021 48.5074 10.1021C47.1073 10.1021 44.0554 8.40998 42.6128 8.40998C41.9534 8.40998 41.7054 8.86344 41.7054 9.52301C41.7054 11.5037 44.0554 15.255 44.0554 16.3674C44.0554 16.491 44.0148 16.6553 43.85 16.6553C43.1068 16.6553 39.6053 12.5336 38.3669 12.5336C37.9135 12.5336 37.873 13.1513 37.873 14.0589V15.4611C37.873 16.4099 37.8304 16.9857 37.3797 16.9857C36.3067 16.9857 35.8095 13.9758 34.7824 13.9758C33.7095 13.9758 33.5027 19.3367 32.473 19.3367C31.2764 19.3367 32.3081 13.4399 31.1528 13.4399C29.8751 13.4399 28.4312 17.358 27.5238 17.358C27.1947 17.358 27.1129 17.0269 27.1129 16.7384C27.1129 15.5442 27.8116 13.6061 27.8116 12.4525C27.8116 11.8734 27.6474 11.5443 27.1535 11.5443C25.8745 11.5443 23.0698 13.6061 21.9995 13.6061C21.8346 13.6061 21.6292 13.523 21.6292 13.3581C21.6292 12.3694 26.1218 9.2351 26.1218 7.83351C26.1218 6.47053 19.9361 7.38006 19.9361 5.81162C19.9361 4.49378 24.3508 3.1308 24.3508 1.77174C24.3514 0.573655 19.1131 0.0390625 17.0948 0.0390625C14.6598 0.0390625 13.3435 0.325662 13.3435 1.02842C13.3435 2.10153 18.8677 2.43197 18.8677 3.37879C18.8677 4.28636 13.1367 6.71853 13.1367 8.12011C13.1367 9.35877 21.2151 8.20321 21.2151 9.48244C21.2151 10.884 14.1678 16.9438 14.1678 18.9651C14.1678 19.4198 14.4988 19.6246 14.9496 19.6246C17.0948 19.6246 22.6577 15.5442 24.1846 15.5442C24.7211 15.5442 24.7629 16.2025 24.7629 16.7789C24.7629 17.8534 24.3913 19.501 24.3913 20.6978C24.3913 21.6465 24.64 22.3061 25.4623 22.3061C26.9893 22.3061 28.3906 19.7084 29.4204 19.7084C30.7386 19.7084 29.9581 27.336 31.9365 27.336C33.6264 27.336 34.3271 19.0887 35.3974 19.0887C36.4716 19.0887 37.3385 21.4817 38.3257 21.4817C39.5622 21.4817 38.9864 17.3175 40.306 17.3175C41.7479 17.3175 45.8689 22.2655 47.7269 22.2655C48.3026 22.2655 48.5074 21.8108 48.5074 21.2317C48.5074 19.0482 45.4587 14.1014 45.4587 12.5336C45.4587 12.1214 45.5804 11.9971 46.0338 11.9971C47.6438 11.9971 52.3438 14.2238 54.5694 14.2238C55.3126 14.2238 55.7673 13.8115 55.7673 13.275M18.1232 10.884C18.1232 11.7085 14.9914 14.4698 13.8799 14.4698C13.4678 14.4698 13.3435 13.9758 13.3435 13.523C13.3435 12.6998 13.7137 11.5443 14.1684 11.1726C14.7029 10.6773 15.9394 10.4332 16.888 10.4332C17.4631 10.4332 18.1232 10.5536 18.1232 10.8847M48.4269 15.1313C48.4269 16.5741 53.5809 23.6246 54.5701 23.6246C55.3964 23.6246 56.012 22.1824 56.012 20.9431C56.012 20.616 55.9309 20.2868 55.768 20.0375C55.0248 19.0076 49.789 14.884 48.6336 14.884C48.508 14.884 48.4263 15.0083 48.4263 15.1313M114.635 2.63809C114.635 3.21325 115.088 3.66605 115.667 3.66605C115.802 3.66753 115.937 3.642 116.062 3.59095C116.188 3.53991 116.302 3.46437 116.398 3.36874C116.494 3.27311 116.57 3.15931 116.622 3.03397C116.673 2.90864 116.699 2.77428 116.699 2.63874C116.699 2.05965 116.244 1.6062 115.667 1.6062C115.531 1.60471 115.396 1.63038 115.27 1.68171C115.144 1.73304 115.03 1.80899 114.934 1.90511C114.838 2.00123 114.762 2.11558 114.711 2.24144C114.659 2.36731 114.634 2.50216 114.635 2.63809M107.916 11.7504C107.916 8.82156 100.913 8.07954 100.913 7.41997C100.913 6.88538 104.826 5.97585 106.845 5.93463C103.753 1.97786 99.3459 2.39009 99.3459 1.6893C99.3459 1.2751 102.646 0.45064 105.693 0.45064C108.248 0.45064 110.64 1.02776 110.64 2.96525C110.64 4.03967 109.775 5.1527 109.775 6.80228C109.775 7.7105 110.226 8.49243 111.425 8.49243C112.705 8.49243 112.994 7.13141 112.994 5.68729C112.994 4.49313 112.786 3.58491 112.786 3.00779C112.786 1.2751 113.975 0.122163 115.667 0.122163C117.07 0.122163 117.399 0.739202 119.463 0.739202C118.348 1.39943 117.937 2.59752 117.937 3.17268C117.937 4.90536 119.052 6.10149 119.052 9.64799C119.052 16.1606 112.951 18.4704 105.486 18.4704C103.432 18.4704 101.244 18.3055 99.0979 17.9764C98.7688 17.9358 98.6858 17.8521 98.6858 17.6472C98.6858 17.1094 101.616 16.8208 101.616 14.1838C101.616 13.152 101.285 12.1626 101.285 11.7909C101.285 11.5861 101.45 11.4618 101.616 11.4618C102.236 11.4618 103.474 13.8528 105.776 13.8528C106.39 13.8528 107.917 13.646 107.917 11.7504M114.881 7.58617C114.881 11.255 112.21 14.0602 107.378 14.8428C107.917 14.8827 108.412 14.8827 108.907 14.8827C114.552 14.8827 116.615 12.3275 116.615 10.1845C116.615 8.98776 115.955 7.91531 114.881 7.58683M112.044 60.7372C112.704 58.6761 113.531 57.2313 114.882 55.0053C113.531 54.3064 109.94 52.8198 109.94 50.3856C109.94 47.5419 113.488 45.3158 114.222 45.3158C114.551 45.3158 114.634 45.6038 114.634 46.1403C114.634 47.6237 113.934 50.0159 113.934 51.2939C113.934 52.4481 114.677 53.5631 115.337 53.5631C116.037 53.5631 117.977 51.0891 117.977 48.6556C117.977 44.282 114.139 42.9635 112.952 42.9635C111.837 42.9635 109.817 44.778 105.072 44.778C96.2115 44.778 94.1886 35.9981 94.1886 32.1611C94.1886 31.9968 94.2292 31.9543 94.2704 31.9543C94.4771 31.9543 95.344 33.0287 98.1487 33.0287C99.5925 33.0287 100.913 32.6571 103.019 32.6571C107.958 32.6571 110.146 36.0812 113.2 40.4489C115.047 41.6031 119.463 43.4588 119.463 48.6961C119.463 53.3151 114.551 55.8722 113.365 60.819C115.254 60.6155 116.369 57.2313 118.306 57.2313C119.297 57.2313 119.752 58.0152 119.752 59.2545C119.752 61.067 118.72 63.7904 116.738 65.4805C116.781 65.3137 116.781 65.1089 116.781 64.8609C116.781 63.7073 116.328 62.0597 115.006 62.0597C112.952 62.0597 112.29 64.2844 111.136 66.1388C109.94 61.9353 108.33 58.1395 105.446 55.8297C102.525 53.4793 97.4885 54.7573 97.4885 50.4694C97.4885 49.3138 98.2317 47.6662 98.2317 46.3458C98.2317 45.893 98.1486 45.4801 97.9014 45.1496C101.863 46.6363 100.459 49.2726 102.894 51.9947C104.412 53.7273 108.619 55.3769 111.055 62.5105C111.094 62.3037 111.136 61.7691 111.136 61.3975C111.136 55.2938 103.059 49.3138 102.359 46.8398C107.051 47.3763 107.875 48.5313 110.105 54.7167C110.558 55.9966 112.044 59.1714 112.044 60.7372M110.971 40.7375C110.971 39.8718 108.783 39.7906 108.578 37.3572C108.535 36.9855 108.413 36.3272 107.959 36.3272C107.216 36.3272 107.792 38.5945 106.968 38.5945C105.072 38.5945 104.455 34.8831 103.753 34.8831C103.586 34.8831 103.39 35.0074 103.39 35.5028C103.39 35.9556 103.473 36.2461 103.473 36.7787C103.473 37.3166 103.349 37.6863 102.854 37.6863C101.739 37.6863 100.75 35.0905 99.7999 35.0905C99.5925 35.0905 99.3878 35.2142 99.3878 35.4197C99.3878 35.915 100.212 36.8213 100.212 37.276C100.212 38.2654 97.5311 37.7288 97.5311 38.5539C97.5311 38.9256 97.9014 39.0473 98.3966 39.0473C99.2634 39.0473 100.626 38.6776 101.327 38.6776C101.739 38.6776 102.359 38.7607 102.359 39.2953C102.359 39.8718 100.873 40.6138 100.873 41.1497C100.873 41.3977 101.122 41.5194 101.327 41.5194C102.442 41.5194 104.413 39.5839 105.816 39.5839C106.061 39.5839 106.679 39.7075 106.679 40.0792C106.679 40.6138 105.279 41.5606 105.279 42.3445C105.279 42.5513 105.403 42.7993 105.651 42.7993C106.389 42.7993 107.38 40.8611 108.783 40.8611C109.321 40.8611 110.105 41.0685 110.517 41.0685C110.848 41.0685 110.972 40.8611 110.972 40.7375" fill="#0F0E9A"/>
<path d="M80.2558 16.0378C80.9178 16.0378 81.0415 17.6474 81.1671 18.5943C81.2489 19.0903 81.332 19.1308 81.5394 19.1308C82.0346 19.1308 82.8164 17.2332 83.345 17.2332C84.1275 17.2332 86.2334 19.4187 89.7401 19.4187C94.7266 19.4187 99.4298 15.9135 99.4298 9.72998C99.4298 3.75196 95.2199 0.24603 89.409 0.24603C86.6475 0.24603 84.6227 1.60705 83.5504 1.60705C82.8995 1.64762 81.9083 0 81.4131 0C81.2083 0 81.0009 0.410269 81.0009 1.11106C81.0009 1.56648 81.0009 3.00864 80.5057 3.00864C79.5126 3.00864 75.6801 0.164893 75.6801 1.19482C75.6801 2.14361 78.2355 5.02923 78.2355 5.77124C78.2355 6.51457 75.7207 7.21536 75.7207 7.7107C75.7207 8.61695 78.4017 8.78119 78.4017 9.9374C78.4017 11.091 75.597 11.9986 75.597 12.8662C75.597 13.565 78.4017 13.071 78.4017 13.9367C78.4017 14.8024 76.3402 17.6887 76.3402 18.5112C76.3402 18.7186 76.3808 18.7186 76.5457 18.7186C77.3275 18.7186 79.6774 16.0371 80.2558 16.0371M81.4556 9.27718C81.4556 8.82372 79.8436 7.95869 79.8436 7.4627C79.8436 7.38157 79.9247 7.33903 80.051 7.33903C80.5057 7.33903 81.2894 7.50524 81.909 7.50524C82.4468 7.50524 82.5279 5.19543 82.9329 5.19543C83.2194 5.19543 83.7153 7.38157 84.172 7.38157C84.7058 7.38157 85.695 6.76191 86.1091 6.76191C86.1922 6.76191 86.274 6.80313 86.274 6.88623C86.274 7.17414 85.2423 8.28586 85.2423 8.61695C85.2423 8.98861 87.553 9.44142 87.553 9.77251C87.553 10.1847 85.2017 10.1442 85.2017 10.5158C85.2017 10.8024 86.0686 11.958 86.0686 12.3283C86.0686 12.4114 86.026 12.454 85.9443 12.454C85.6139 12.454 84.3349 11.8749 83.9626 11.8749C83.5099 11.8749 82.7758 13.565 82.4042 13.565C82.2799 13.565 82.1988 13.4001 82.1988 13.1934L82.1138 11.5445C82.1138 11.3796 82.0346 11.2147 81.8272 11.2147C81.332 11.2147 80.3814 11.1721 80.0916 11.1721C79.8842 11.1721 79.803 11.1316 79.803 11.0504C79.803 10.7193 81.4556 9.56509 81.4556 9.27718M89.4934 17.1109C86.6057 17.1109 84.7065 15.6687 84.7065 14.9254C84.7065 14.5537 84.9544 14.3077 85.2854 14.3077C86.1929 14.3077 88.1732 15.708 88.8333 15.708C88.9975 15.708 89.1212 15.6262 89.1212 15.3782C89.1212 14.6349 88.4211 13.3995 88.4211 12.7825C88.4211 12.6176 88.5448 12.4939 88.7927 12.4939C89.9049 12.4939 91.5582 12.9487 92.4257 12.9487C92.7122 12.9487 92.7933 12.7825 92.7933 12.6176C92.7933 11.71 90.1123 9.93675 90.1123 9.40019C90.1123 8.90486 93.4456 8.16153 93.4456 7.38091C93.4456 6.55448 88.9144 7.13161 88.9144 6.34902C88.9144 5.77059 89.7813 4.78123 89.7813 4.32778C89.7813 4.12101 89.6171 4.03987 89.3286 4.03987C88.957 4.03987 86.9773 4.82377 86.1523 4.82377C85.7382 4.82377 85.2429 4.74066 85.2429 4.16354C85.2429 3.21279 86.853 2.18287 89.3691 2.18287C93.4456 2.18287 95.8826 4.988 95.8826 9.6881C95.8826 15.6262 91.7211 17.1109 89.4934 17.1109ZM61.5803 88.4479C61.5803 88.8196 61.456 89.2338 61.1256 89.6447C60.6742 88.8202 59.3945 88.4054 58.8162 88.408C54.5716 88.408 56.1777 94.5522 51.6426 94.5522C49.748 94.5522 49.5818 94.3042 48.8805 94.3042C48.5926 94.3042 48.4277 94.4286 48.4277 94.6759C48.4277 95.7503 49.9527 98.3873 54.2 98.3873C58.4472 98.3873 62.5282 95.7909 62.5282 92.5702C62.5282 92.0356 62.4046 91.4624 62.1566 90.8834C62.3215 90.6354 62.7356 90.4711 63.1072 90.4711C63.7654 90.4711 64.137 91.2144 64.7546 91.2144C65.416 91.2144 65.9099 90.7191 65.9099 90.0589C65.9099 89.5223 65.6221 89.1507 65.1262 88.9007C65.4572 88.6553 65.7032 88.2411 65.7032 87.7883C65.7032 87.0869 65.2093 86.4306 64.383 86.4306C64.0114 86.4306 63.7654 86.5549 63.4769 86.8396C63.3957 86.1002 62.9836 85.3987 62.1992 85.3987C61.5803 85.3987 61.1256 85.8522 61.1256 86.5549C61.1256 87.2093 61.5803 87.7471 61.5803 88.4479" fill="#0F0E9A"/>
<path d="M50.4899 90.0168C49.2534 90.0168 47.3967 88.6963 47.3967 87.953C47.3967 87.3334 47.9757 87.0029 48.4265 87.0029C49.4582 87.0029 51.3122 88.2821 51.3122 89.3546C51.3122 89.6451 51.1055 90.0168 50.4899 90.0168ZM38.9866 80.7802C42.2846 81.6014 43.9339 83.3746 44.263 85.4809C44.594 87.4982 45.0062 89.1491 45.7886 89.9743C46.8197 91.1318 48.8386 92.1578 50.6135 92.1578C52.0986 92.1578 53.2906 91.6677 53.2906 90.3054C53.2906 88.82 51.2717 85.4809 48.3028 85.4809C48.0163 85.4809 47.6447 85.5235 47.2325 85.5235C46.8609 85.5235 46.3244 85.4404 45.9934 85.1518C45.3352 84.5727 45.1298 81.4797 43.8914 79.6246C42.5325 77.5635 41.0481 76.9844 39.0292 76.9844C37.5873 76.9844 35.9766 77.7683 35.9766 78.9238C35.9766 79.6246 36.3482 80.1186 38.9866 80.7802Z" fill="#0F0E9A"/>
<path d="M59.683 75.749C59.683 73.8939 55.8466 73.8534 55.8466 71.0482C55.8466 70.3455 56.3013 69.1506 57.2094 67.8714C57.581 70.0163 58.4458 71.13 60.3025 71.8321C63.9701 73.1912 64.466 75.253 64.466 77.4404C64.466 81.1538 61.8687 85.7708 55.1904 85.7708C49.829 85.7708 45.9946 80.9876 45.9946 76.9471C45.9946 75.8321 46.2825 74.5947 46.9838 74.5947C47.6027 74.5947 47.8101 75.0887 48.3021 75.5841C50.1601 77.4404 52.1784 77.9344 55.1073 77.9344C57.7452 77.9344 59.683 76.864 59.683 75.749ZM59.8472 78.7183C58.4334 79.3661 57.8695 79.2549 57.8695 80.701C57.8695 81.2349 57.7452 81.9338 57.7452 82.3054C57.7452 82.7994 57.8283 83.09 58.4033 83.09C59.8897 83.09 62.2397 80.5747 62.2397 78.4298C62.2397 77.8514 61.9087 77.6073 61.5371 77.6073C61.206 77.6073 60.8383 78.2655 59.8472 78.7183M46.6953 57.8954C46.6953 55.2552 52.9628 53.8536 52.9628 50.5956C52.9628 50.0591 52.7574 49.1123 52.3858 48.4102C54.5709 49.6063 56.1776 51.6295 56.1776 53.2765C56.1776 56.1228 53.2101 57.4406 53.2101 59.2159C53.2101 61.2777 56.3844 61.6068 56.3844 64.1639C56.3844 66.2644 53.373 68.6985 53.373 71.4205C53.373 73.5223 54.8594 75.253 57.1263 75.5415C56.3844 75.7077 55.7249 75.8321 55.0242 75.8321C50.8588 75.8321 46.5717 72.4112 46.5717 68.3268C46.5717 66.3049 47.4385 64.5356 48.7568 63.2557C49.9121 64.2457 51.0662 64.9053 51.8068 64.9053C52.4675 64.9053 52.7574 64.5762 52.7574 64.0808C52.7574 62.5536 46.6953 61.154 46.6953 57.8954M22.7814 78.2649C22.9555 79.6737 24.2678 80.7402 25.7503 80.576C26.2848 80.5171 26.782 80.3686 27.1131 80.1638C27.4421 81.4823 28.5497 82.3309 30.0453 82.1346C31.5631 81.937 32.5968 80.7409 32.4319 79.213C32.4025 78.8853 32.3189 78.5647 32.1846 78.2642C32.1846 78.2642 32.3861 78.2446 32.5379 78.2145C34.0256 77.9331 35.0298 76.739 34.9062 75.2949C34.7413 73.8121 33.41 72.7102 32.0217 72.8804C31.4852 72.9464 30.988 73.1499 30.657 73.4405C30.2854 72.2051 29.1228 71.1287 27.5344 71.3931C26.1016 71.6299 25.153 72.847 25.2976 74.3886C25.3198 74.6386 25.3787 74.9252 25.503 75.2118L25.0941 75.2726C23.8903 75.4519 22.5852 76.6631 22.7814 78.2649M30.4856 76.6428C30.5253 77.0515 30.4031 77.4595 30.1453 77.7791C29.8874 78.0987 29.5145 78.3043 29.1067 78.3518C28.6988 78.3992 28.2887 78.2848 27.9643 78.033C27.64 77.7812 27.4273 77.4122 27.3721 77.0053C27.3483 76.8008 27.365 76.5937 27.4213 76.3957C27.4775 76.1977 27.5722 76.0127 27.6999 75.8512C27.8277 75.6898 27.9859 75.5552 28.1657 75.4549C28.3455 75.3547 28.5432 75.2909 28.7476 75.267C28.9521 75.2432 29.1592 75.26 29.3572 75.3162C29.5551 75.3725 29.7401 75.4672 29.9015 75.5949C30.0629 75.7227 30.1975 75.881 30.2977 76.0608C30.398 76.2405 30.4618 76.4383 30.4856 76.6428" fill="#0F0E9A"/>
</g>
<defs>
<clipPath id="clip0_925_1133">
<rect width="135.577" height="150" fill="white" transform="translate(0.681641)"/>
</clipPath>
</defs>
</svg>
