<svg width="503" height="150" viewBox="0 0 503 150" fill="none" xmlns="http://www.w3.org/2000/svg">
<g clip-path="url(#clip0_925_1151)">
<path d="M137.961 94.7343C129.803 94.7343 122.159 91.2803 115.214 85.6578L116.905 77.7205L116.979 77.4264C118.484 68.9754 123.262 54.7901 137.961 54.7901C148.984 54.7901 157.951 63.7568 157.951 74.7803C157.914 85.7676 148.948 94.7343 137.961 94.7343V94.7343ZM137.961 34.5431C119.182 34.5431 104.631 46.7431 98.7158 66.8068C89.6756 53.247 82.8403 36.9686 78.8354 23.2617H58.6246V75.846C58.6246 86.2088 50.1726 94.6598 39.8099 94.6598C29.4472 94.6598 20.9962 86.2088 20.9962 75.846V23.2617H0.783434V75.846C0.709904 97.3803 18.2383 115.055 39.7717 115.055C61.306 115.055 78.8344 97.3803 78.8344 75.846V67.0274C82.7658 75.2215 87.5795 83.4892 93.4226 90.8392L81.0383 149.045H101.728L110.693 106.823C118.557 111.858 127.597 115.019 137.96 115.019C160.118 115.019 178.161 96.8656 178.161 74.7068C178.161 52.5852 160.118 34.5431 137.96 34.5431H137.961Z" fill="#6FDA44"/>
<path d="M239.86 36.822L252.905 89.4063L267.274 36.822H284.397L262.313 112.814H245.189L231.63 59.8984L218.106 112.777H200.983L178.896 36.7857H196.021L210.389 89.37L223.434 36.7857H239.859V36.8229L239.86 36.822ZM325.37 34.5435C303.139 34.5435 285.133 52.5857 285.133 74.7808C285.133 97.0131 303.175 115.019 325.37 115.019C347.602 115.019 365.644 97.0131 365.644 74.7808C365.644 52.5494 347.602 34.5435 325.37 34.5435ZM325.37 98.4827C312.289 98.4827 301.705 87.8994 301.705 74.818C301.705 61.7357 312.325 51.1533 325.37 51.1533C338.452 51.1533 349.035 61.7357 349.035 74.818C349.035 87.8631 338.452 98.4827 325.37 98.4827ZM414.554 53.8357C403.053 53.8357 393.756 63.169 393.756 74.6337V112.777H376.521V36.822H393.756V48.5073C393.756 48.5073 401.105 36.7847 416.208 36.7847H421.499V53.8357H414.554V53.8357ZM472.394 71.8416C484.63 64.9328 492.936 51.8141 492.936 36.7847H475.7C475.7 49.4622 465.412 59.7514 452.735 59.7514H450.419V0.148438H433.186V112.776H450.419V76.9857H452.478C454.168 76.9857 456.373 78.0886 457.365 79.4475L481.838 112.777H502.49L472.394 71.8416V71.8416Z" fill="black"/>
</g>
<defs>
<clipPath id="clip0_925_1151">
<rect width="502.008" height="150" fill="white" transform="translate(0.578125)"/>
</clipPath>
</defs>
</svg>
