<svg width="676" height="150" viewBox="0 0 676 150" fill="none" xmlns="http://www.w3.org/2000/svg">
<g clip-path="url(#clip0_962_1015)">
<path d="M660.979 0.101562L624.07 79.0606L610.191 49.1425H595.18L618.004 98.0807H630.136L675.887 0.101562H660.979Z" fill="#D52B1E"/>
<path d="M502.65 146.713H532.363V92.3255C532.363 79.8853 539.559 71.1463 550.252 71.1463C560.533 71.1463 565.879 78.3431 565.879 88.7271V146.713H595.591V83.0724C595.591 61.4821 582.637 46.266 561.664 46.266C548.298 46.266 538.943 52.0235 531.951 62.5102H531.334V49.1447H502.547L502.65 146.713ZM444.253 46.4716C413.204 46.4716 392.436 68.7817 392.436 98.1857C392.436 127.384 413.204 149.9 444.253 149.9C475.302 149.9 496.07 127.384 496.07 98.1857C496.173 68.7817 475.302 46.4716 444.253 46.4716ZM444.048 127.898C429.963 127.898 422.457 116.075 422.457 98.1857C422.457 80.0909 429.86 68.4733 444.048 68.4733C458.133 68.4733 465.947 80.0909 465.947 98.1857C466.049 116.075 458.236 127.898 444.048 127.898ZM307.72 146.713H391.203V123.272H343.91V122.655L389.146 71.9688V49.0419H307.72V72.5857H353.471V73.2026L307.72 124.3V146.713ZM269.577 146.713H299.495V49.1447H269.577V146.713ZM200.179 146.713H229.995V101.887C229.995 81.5303 242.229 72.4829 260.838 75.0532H261.455V49.3504C259.913 48.7335 258.165 48.6307 255.389 48.6307C243.771 48.6307 235.958 53.9769 229.275 65.3889H228.658V49.1447H200.179V146.713ZM145.484 128.001C132.324 128.001 124.305 119.468 122.762 106.308H193.085C193.291 85.3343 187.739 68.5761 176.122 58.0893C167.897 50.4813 157.101 46.266 143.325 46.266C113.921 46.266 93.5641 68.5761 93.5641 97.7745C93.5641 127.178 112.995 149.591 145.278 149.591C157.513 149.591 167.177 146.301 175.196 140.852C183.73 134.992 189.898 126.356 191.543 117.823H162.962C160.186 124.197 154.223 128.001 145.484 128.001ZM143.942 67.548C154.428 67.548 161.625 75.3616 162.859 86.7737H122.968C125.333 75.2588 131.604 67.548 143.942 67.548ZM34.1391 146.713H65.3938L99.3215 49.1447H69.4034L50.3833 111.86H49.9721L30.952 49.1447H0.211426L34.1391 146.713ZM269.577 14.3945H299.495V40.9198H269.577V14.3945Z" fill="black" fill-opacity="0.7"/>
</g>
<defs>
<clipPath id="clip0_962_1015">
<rect width="675.676" height="150" fill="white" transform="translate(0.211426)"/>
</clipPath>
</defs>
</svg>
