<svg width="436" height="150" viewBox="0 0 436 150" fill="none" xmlns="http://www.w3.org/2000/svg">
<path d="M435.348 32.0195V135.134L421.078 149.064V48.1577L435.348 32.0195Z" fill="#E79225"/>
<path d="M341.834 32.1045L327.055 48.1577L327.819 49.177L420.486 48.8372L421.336 48.1577L435.35 32.0195L341.834 32.1045Z" fill="#FFF16D"/>
<path d="M327.055 48.1641H421.336V149.155H327.055V48.1641Z" fill="url(#paint0_linear_925_1198)"/>
<path d="M406.979 84.5181C405.11 79.8465 402.307 75.5996 398.655 71.9473C395.172 68.3799 391.265 65.6619 386.848 63.8782C382.517 62.0945 377.845 61.1602 372.749 61.1602C367.652 61.1602 362.896 62.0945 358.564 63.8782C354.147 65.6619 350.24 68.3799 346.758 71.9473C343.105 75.5996 340.387 79.8465 338.519 84.5181C336.65 89.1897 335.801 94.2859 335.801 99.8918C335.801 105.328 336.735 110.424 338.604 115.181C340.46 119.941 343.263 124.275 346.843 127.921C350.24 131.404 354.147 134.037 358.479 135.821C362.811 137.604 367.652 138.539 372.834 138.539C377.845 138.539 382.517 137.604 386.848 135.821C391.18 134.037 395.172 131.404 398.655 127.921C402.307 124.184 405.11 119.937 406.979 115.266C408.847 110.594 409.782 105.413 409.782 99.9768C409.782 94.2859 408.847 89.1897 406.979 84.5181V84.5181ZM387.528 117.814C383.876 122.146 379.034 124.354 372.749 124.354C366.463 124.354 361.537 122.146 357.885 117.814C354.232 113.482 352.449 107.451 352.449 99.8069C352.449 91.9926 354.317 85.962 357.885 81.5452C361.537 77.1285 366.378 75.005 372.749 75.005C379.034 75.005 383.876 77.2134 387.528 81.5452C391.095 85.962 392.964 91.9926 392.964 99.8069C392.964 107.451 391.18 113.482 387.528 117.814Z" fill="white"/>
<path d="M317.8 23.6133V24.1229L329.862 116.79L322.812 136.326L321.877 135.646L309.477 46.8013L309.731 45.6122L317.461 24.1229L317.8 23.6133Z" fill="#009ADA"/>
<path d="M224.958 36.5238L317.795 23.6133L309.981 45.867L308.877 47.0561L222.07 59.7968L222.495 43.9134L224.958 36.5238Z" fill="#91C9ED"/>
<path d="M309.988 45.8672L322.814 136.326L231.336 149.152L219.02 61.7506L224.371 57.5886L309.988 45.8672Z" fill="url(#paint1_linear_925_1198)"/>
<path d="M294.436 63.1941C294.011 60.3911 293.077 58.2677 291.548 56.8238C290.274 55.7196 288.745 55.125 286.961 55.125C286.536 55.125 286.027 55.125 285.517 55.2099C283.139 55.5497 281.355 56.6539 280.251 58.4376C279.402 59.7116 279.062 61.3255 279.062 63.1941C279.062 63.8736 279.147 64.638 279.232 65.4025L282.544 88.9303L256.214 92.8374L252.901 69.3096C252.476 66.5916 251.542 64.4682 250.013 63.0242C248.739 61.8351 247.21 61.2405 245.511 61.2405C245.087 61.2405 244.662 61.2405 244.237 61.3255C241.774 61.6652 239.906 62.7694 238.716 64.5531C237.867 65.8272 237.527 67.441 237.527 69.3096C237.527 69.9891 237.612 70.7536 237.697 71.603L246.701 132.843C247.125 135.646 248.06 137.77 249.758 139.213C251.032 140.318 252.561 140.827 254.43 140.827C254.94 140.827 255.449 140.827 255.959 140.742C258.252 140.403 259.951 139.298 261.055 137.515C261.82 136.241 262.159 134.712 262.159 132.928C262.159 132.249 262.074 131.484 261.989 130.72L258.337 106.512L284.668 102.605L288.32 126.813C288.745 129.616 289.679 131.739 291.293 133.098C292.567 134.202 294.096 134.797 295.88 134.797C296.304 134.797 296.814 134.797 297.324 134.712C299.702 134.372 301.486 133.268 302.59 131.484C303.354 130.21 303.779 128.681 303.779 126.813C303.779 126.133 303.694 125.369 303.609 124.604L294.436 63.1941Z" fill="white"/>
<path d="M138.068 0L105.027 78.4826L109.529 112.967L109.784 112.882L146.902 29.3885L146.732 27.6048L138.748 1.10419L138.068 0Z" fill="#66BF6B"/>
<path d="M138.066 0L146.815 29.3885L228.525 65.9967L228.78 65.8269L221.815 38.307L138.066 0Z" fill="#98D0A0"/>
<path d="M146.649 28.793L228.784 65.8259L191.666 149.999L109.531 112.966L146.649 28.793Z" fill="url(#paint2_linear_925_1198)"/>
<path d="M203.896 72.6255C202.113 67.869 199.65 63.792 196.422 60.3945C193.194 56.997 189.287 54.279 184.7 52.3254C180.114 50.3718 175.527 49.4375 170.856 49.4375H170.601C165.844 49.4375 161.173 50.5417 156.586 52.5802C151.745 54.7036 147.583 57.5915 144.015 61.4137C140.448 65.151 137.56 69.7377 135.352 75.0038C133.143 80.185 131.954 85.4512 131.699 90.6324V92.4161C131.699 97.0027 132.464 101.504 134.077 105.921C135.776 110.593 138.239 114.585 141.467 117.982C144.695 121.38 148.687 124.098 153.443 126.051C157.945 128.005 162.532 128.939 167.203 128.939H167.288C171.96 128.939 176.631 127.92 181.218 125.967C186.059 123.843 190.306 120.87 193.874 117.048C197.441 113.311 200.414 108.809 202.622 103.543C204.831 98.2768 206.02 93.0956 206.275 87.9144V86.3855C206.36 81.7139 205.595 77.1272 203.896 72.6255V72.6255ZM187.503 97.0876C184.446 104.392 180.284 109.404 175.272 112.122C172.554 113.566 169.751 114.33 166.948 114.33C164.485 114.33 161.852 113.735 159.219 112.631C153.443 110.168 149.876 106.261 148.347 100.655C147.837 98.7864 147.583 96.8328 147.583 94.7943C147.583 90.7173 148.602 86.2156 150.64 81.3741C153.783 73.8996 157.945 68.8033 162.956 66.0004C165.674 64.4715 168.477 63.792 171.28 63.792C173.828 63.792 176.377 64.3866 179.095 65.4908C184.785 67.954 188.353 71.8611 189.882 77.467C190.391 79.2507 190.646 81.2043 190.646 83.2428C190.646 87.4897 189.627 92.0763 187.503 97.0876V97.0876Z" fill="white"/>
<path d="M98.4923 13.3359L111.913 103.2L105.797 134.797L104.948 133.693L91.8672 46.8864V45.1876L97.643 14.8648L98.4923 13.3359Z" fill="#760D16"/>
<path d="M0.46875 59.797L6.83909 28.0302L98.4871 13.3359L92.2866 45.6973V47.8207L1.57294 60.6463L0.46875 59.797Z" fill="#EF463E"/>
<path d="M92.2866 45.6953L105.792 134.795L15.0781 148.98L0.46875 59.795L92.2866 45.6953Z" fill="url(#paint3_linear_925_1198)"/>
<path d="M82.5169 120.608C81.8374 119.758 80.8182 119.164 79.629 118.739C78.4399 118.314 76.996 118.144 75.2123 118.144C73.5984 118.144 71.7298 118.314 69.6913 118.654L45.7388 122.731C45.9936 120.862 46.928 118.484 48.5418 115.511C50.3255 112.199 53.0435 108.207 56.5259 103.62C57.4354 102.384 58.3699 101.166 59.3289 99.9677C59.7536 99.3732 60.4331 98.6087 61.2825 97.5046C66.8034 90.2848 70.116 84.4241 71.475 79.8375C72.2394 77.2044 72.6641 74.5713 72.834 71.9382C72.9189 71.1738 72.9189 70.4943 72.9189 69.8148C72.9189 67.9462 72.7491 66.0775 72.4093 64.2089C72.1545 62.5101 71.7298 61.1511 71.1352 60.0469C70.5407 58.9428 69.8612 58.0934 69.0118 57.5838C68.0775 56.9892 66.6335 56.7344 64.8498 56.7344C63.4059 56.7344 61.6222 56.9042 59.4988 57.244L31.809 62.0005C28.4964 62.5951 25.9483 63.5294 24.4194 65.0583C23.1453 66.2474 22.5508 67.7763 22.5508 69.4751C22.5508 69.8997 22.5508 70.4094 22.6357 70.919C23.0604 73.2973 24.2495 74.996 26.2031 75.8454C27.3922 76.355 28.7512 76.6098 30.45 76.6098C31.5542 76.6098 32.8283 76.5249 34.1873 76.2701L57.2904 72.1931C57.2904 72.6178 57.3753 73.0424 57.3753 73.3822C57.3768 74.8322 57.1178 76.2706 56.6109 77.6291C55.9314 79.5827 54.2326 82.3007 51.4297 85.7831L47.8623 90.1999C41.5769 97.7594 37.1601 104.215 34.4421 109.566C32.4885 113.303 31.2144 116.87 30.45 120.523C30.0253 122.646 29.7705 124.6 29.7705 126.553C29.7705 127.912 29.8554 129.271 30.1103 130.545C30.45 132.414 30.8747 133.943 31.4693 135.132C32.0638 136.321 32.9132 137.255 33.8475 137.765C34.7818 138.275 36.0559 138.445 37.9245 138.445C40.2179 138.445 43.3606 138.105 47.3526 137.425L72.4943 133.094C76.911 132.329 80.0537 131.225 81.8374 129.781C83.2814 128.592 84.0458 126.978 84.0458 125.109C84.0458 124.6 83.9609 124.09 83.8759 123.58C83.7061 122.476 83.2814 121.457 82.5169 120.608V120.608Z" fill="white"/>
<defs>
<linearGradient id="paint0_linear_925_1198" x1="374.191" y1="49.6097" x2="374.191" y2="146.107" gradientUnits="userSpaceOnUse">
<stop offset="0.005618" stop-color="#FFE513"/>
<stop offset="1" stop-color="#FDB924"/>
</linearGradient>
<linearGradient id="paint1_linear_925_1198" x1="223.703" y1="59.8046" x2="318.322" y2="135.791" gradientUnits="userSpaceOnUse">
<stop offset="0.005618" stop-color="#008CD2"/>
<stop offset="1" stop-color="#00649D"/>
</linearGradient>
<linearGradient id="paint2_linear_925_1198" x1="169.159" y1="62.4623" x2="169.159" y2="147.004" gradientUnits="userSpaceOnUse">
<stop stop-color="#26A146"/>
<stop offset="1" stop-color="#008A52"/>
</linearGradient>
<linearGradient id="paint3_linear_925_1198" x1="46.5306" y1="54.173" x2="61.0753" y2="141.955" gradientUnits="userSpaceOnUse">
<stop stop-color="#D92231"/>
<stop offset="1" stop-color="#BA2234"/>
</linearGradient>
</defs>
</svg>
